/* XPM */
static char *_08e8ab54739492c9a517258c2138eb3KQ7GvwHxg33dhWxc[] = {
/* columns rows colors chars-per-pixel */
"70 70 246 2 ",
"   c None",
".  c #785E0F",
"X  c #6B6F03",
"o  c #7A6B01",
"O  c #7B6C0A",
"+  c #736C02",
"@  c #6A790B",
"#  c #7D7304",
"$  c #797807",
"%  c #786713",
"&  c #767514",
"*  c #7C7314",
"=  c #797719",
"-  c #697617",
";  c #6B7927",
":  c #6E7C2A",
">  c #836F0E",
",  c #847A02",
"<  c #8B7B03",
"1  c #85740B",
"2  c #8B740D",
"3  c #847A0B",
"4  c #8C7A0D",
"5  c #857501",
"6  c #937D0C",
"7  c #957C07",
"8  c #836D15",
"9  c #886C1B",
"0  c #8A7513",
"q  c #837C14",
"w  c #8D7B13",
"e  c #83731C",
"r  c #857717",
"t  c #927D1C",
"y  c #977918",
"u  c #8D7A26",
"i  c #947E22",
"p  c #7C820B",
"a  c #798215",
"s  c #738A12",
"d  c #758733",
"f  c #86810B",
"g  c #8A8408",
"h  c #94820C",
"j  c #998609",
"k  c #948B0C",
"l  c #9C8B0C",
"z  c #9D8602",
"x  c #85831B",
"c  c #888715",
"v  c #948414",
"b  c #9B8515",
"n  c #96841B",
"m  c #9B821C",
"M  c #9B8C17",
"N  c #9D9213",
"B  c #9A9A1C",
"V  c #8E9215",
"C  c #AC8B02",
"Z  c #A38C0D",
"A  c #AB8B0B",
"S  c #A58709",
"D  c #A8960B",
"F  c #BA920C",
"G  c #B49807",
"H  c #A48514",
"J  c #A48D15",
"K  c #A98819",
"L  c #B48A1A",
"P  c #AB9215",
"I  c #AE941A",
"U  c #A69817",
"Y  c #B49C13",
"T  c #B4951C",
"R  c #BB9C1C",
"E  c #B69616",
"W  c #B18C01",
"Q  c #9FA31F",
"!  c #AAA61D",
"~  c #B7A71B",
"^  c #BBA30F",
"/  c #8D802C",
"(  c #89872A",
")  c #958224",
"_  c #958B22",
"`  c #959B21",
"'  c #899335",
"]  c #999C3B",
"[  c #8C8030",
"{  c #A28A22",
"}  c #A38725",
"|  c #B98A23",
" . c #AA9527",
".. c #B49424",
"X. c #B49C22",
"o. c #B89A29",
"O. c #B99F30",
"+. c #99A823",
"@. c #BCA324",
"#. c #BAA826",
"$. c #A4B42C",
"%. c #B9B324",
"&. c #A6A737",
"*. c #BAAB3A",
"=. c #B9B935",
"-. c #C99D01",
";. c #C39B0A",
":. c #C89D08",
">. c #C78D17",
",. c #C69C19",
"<. c #DA9918",
"1. c #D19908",
"2. c #E19D18",
"3. c #CBA20A",
"4. c #C9A504",
"5. c #D5A907",
"6. c #D4B30D",
"7. c #DBB60A",
"8. c #C8AC1B",
"9. c #C7AA17",
"0. c #DAA717",
"q. c #C8B21D",
"w. c #DDBA1C",
"e. c #D9B617",
"r. c #CFB00A",
"t. c #E3B30A",
"y. c #E7A31B",
"u. c #E5BC19",
"i. c #F4B516",
"p. c #C49726",
"a. c #C4AB25",
"s. c #C3A32C",
"d. c #CAA42D",
"f. c #C8A726",
"g. c #D5A525",
"h. c #CCB222",
"j. c #C3B529",
"k. c #C3BD2C",
"l. c #C7B429",
"z. c #D3B325",
"x. c #D9BA2A",
"c. c #C8AA33",
"v. c #CDB238",
"b. c #DAB937",
"n. c #E9BA27",
"m. c #F7B923",
"M. c #EABB37",
"N. c #BDC736",
"B. c #DAC10C",
"V. c #EDCB1B",
"C. c #E8C517",
"Z. c #F5C71B",
"A. c #FAD61B",
"S. c #FDDC1C",
"D. c #F6D91A",
"F. c #EAD011",
"G. c #F5E413",
"H. c #FCE51C",
"J. c #FFED1A",
"K. c #F6E81B",
"L. c #F1E116",
"P. c #DBC526",
"I. c #C4C236",
"U. c #DBC836",
"Y. c #D8D73A",
"T. c #CEC32D",
"R. c #ECC522",
"E. c #E4C42C",
"W. c #EDCB2C",
"Q. c #E8CC26",
"!. c #F6C423",
"~. c #F3CD24",
"^. c #FACD24",
"/. c #FBCE2B",
"(. c #F6C82C",
"). c #E9DA23",
"_. c #F5D323",
"`. c #FBD325",
"'. c #FDDA22",
"]. c #F6D22B",
"[. c #FCD32C",
"{. c #F4DC2A",
"}. c #FDDB2C",
"|. c #F7DF23",
" X c #E4C736",
".X c #EBC433",
"XX c #E9CA36",
"oX c #FCCC3A",
"OX c #F8CB36",
"+X c #EADB3A",
"@X c #F4D431",
"#X c #FCDA33",
"$X c #F3D33D",
"%X c #FBD53A",
"&X c #FDDB3C",
"*X c #F7D736",
"=X c #ECE22A",
"-X c #FEE422",
";X c #FDEC22",
":X c #F4EA2B",
">X c #FBEA2B",
",X c #F8E728",
"<X c #FFF127",
"1X c #EAE23A",
"2X c #FDE433",
"3X c #F1E33A",
"4X c #FCE43C",
"5X c #F8EB38",
"6X c #FEF230",
"7X c #FEF33C",
"8X c #FFFA38",
"9X c #8B9B42",
"0X c #9BA743",
"qX c #BAB957",
"wX c #AFB84B",
"eX c #E4BE41",
"rX c #BDC457",
"tX c #BFC24D",
"yX c #DAC449",
"uX c #CBCA5A",
"iX c #D2D34E",
"pX c #EBC845",
"aX c #F3CB46",
"sX c #F6CB44",
"dX c #E8DD45",
"fX c #F8D943",
"gX c #ECDC59",
"hX c #F9DF54",
"jX c #DDE043",
"kX c #E8E346",
"lX c #FDE341",
"zX c #FEE94B",
"xX c #F8E847",
"cX c #FCF547",
"vX c #EEE853",
"bX c #F6EB56",
"nX c #FEF15A",
"mX c #FDF658",
"MX c #C5CC63",
"NX c #D9DB65",
"BX c #D8DE72",
"VX c #DFE166",
"CX c #FFFC6C",
"ZX c #FFFF7A",
"AX c #F9F776",
"SX c #FDFB82",
/* pixels */
"                                                                                                                                            ",
"                                                                                                                                            ",
"                                                                                                                                            ",
"                                                                                                                                            ",
"                                                                                                                                            ",
"                                                              @ ` c p @                                                                     ",
"                                                          d ] wXN.I.=.+.s s                                                                 ",
"                                                      : 9XqXNXNXvXmXvXjXN.+.s                                                               ",
"                                                    : 9XMXBXSXbX5X>X>XcXjXY.$.s                                                             ",
"                                                  d 9XqXMXAXZXmX8XJ.G.=XcXjXjX$.s                                                           ",
"                                                  d wXMXAXZXCXmX-XJ.J.J.6X7XY.Y.B s                                                         ",
"                                                : 0XwXAXZXCXnXzX-XJ.<XJ.;X<X3XdX=.c                                                         ",
"                                              - ' qXVXZXCXmXnXzXxXQ.B.F.H.,X2X3X%.! $                                                       ",
"                                              = 0XuXZXCXbXmXnXdXj.D S 4.B.A.-X2X+X%.c @                                                     ",
"                                            ; ( uXNXCXmXxXbXkXj.h h z C -.7.A.6XlX%.U p                                                     ",
"                                            ; +.yXbXCXcXxXbXU.k h v j W C 5.Z.A.4XY.=.p                                                     ",
"                                            r *.gXfXcX7XxX1X! g x ] _ h b ,.t.A.2X1XI.V X                                                   ",
"                                          & _ *.bXlX8X6X5XY.! g       = J E 5.i.2X5XP.D $                                                   ",
"                                          = &.yXbXlX6X:X1XN.D 3       = b A 5.t.2X4X1X%.g                                                   ",
"                                          a *.gXzX7X,X,X1X%.k $         6 A 4.5.{.2XxX! g $                                                 ",
"                                        s V &.vX4X6X-X:X+X%.f           4 C ;.5.Z.4XlXk.N $                                                 ",
"                                        & +.I.dX5X>XD.:XY.! 3           1 S W 4.C.#X4XU.Y 3                                                 ",
"                                        a +.Y.+X>X;XD.>XT.D $           1 7 C -.u.#X*XdX~ g                                                 ",
"                                        $ ! Y.=X<XJ.G.>Xj.k +             7 C 3.7.}.#XfXh.<                                                 ",
"                                        g %.Y.:X;XG.H.{.q.<               7 C :.5.~.#XfX8.z +                                               ",
"                                      # g ~ =X:XK.L.H.{.~ <               6 A ;.3.R.}.lXh.z 5                                               ",
"                                      3 l %.5X:XG.G.S.~.^ <               0 S ;.4.C.}.lXx.D 5                                               ",
"                                      2 U l.3X,XG.G.S.C.Y 3               w S >.3.u.}.4XE.Y ,                                               ",
"                                      0 P x.3X=XK.K.'.n.D 3               t H F :.u.[.&XW.~ ,                                               ",
"                                      2 I b.+X=XK.K.'.w.P 3               t S F :.e.[.#XXX~ ,                                               ",
"                                      2 L b.*X).).H.`.e.A 4               i H F :.e.[.&X$Xl.,                                               ",
"                                      2 I U.3X{.L.H.'.e.A w               i H L ;.6.].&XfXl.<                                               ",
"                                      4 P U.*X_.D.-X-X9.l q               u m T 4.r.~.lXaXv.h                                               ",
"                                      $ D T.#XA.A.'.}.8.l x               [ m ..9.r.W.4XsXc.6                                               ",
"                                      , Z x.#X|.A.S.}.q.l x               / m ..9.6.~.&XsXd.6                                               ",
"                                      , l h.@X}.A.A.`.q.N (               / m T 9.6.~.&XaXd.6                                               ",
"                                      # j 8.@X}.A._.].h.N x               / m R 9.7._.fXaXs.6                                               ",
"                                      1 h 8.W.}._.A.#Xh.N c               / m R e.e.].4XpXd.w                                               ",
"                                      # h 9.Q.@XZ._.}.h.N =               u H X.w.7.[.&XpXp.w                                               ",
"                                      # h ~ E.].~.`.#Xh.U *               u K ,.w.u._.%XeXO.w                                               ",
"                                      o 6 I x.].[.~./. XU q               ) K 8.w.C.~.*Xb...e                                               ",
"                                      O 6 I z.W.].~.[. XR 3               y K g.R.C.].%Xv.{ 8                                               ",
"                                      1 6 P f.E.]././.XX@.4               0 L n.~.V.].$X*.K 8                                               ",
"                                        w J f.E./.[./..X#.c               0 E M.~.C.].XXo.m O                                               ",
"                                        w H R x.(./.(..X#.n &             b f.oX].V.].U.o.n                                                 ",
"                                        2 h E z.(.[.!.OXv.J &           * { p.oX`._.@Xx.T t                                                 ",
"                                        3 7 P 9.R.[.!.OXyX .=           * ..b.sX~._.@Xh.J r                                                 ",
"                                        1 2 T F n.[.m.%XpX .r           o @.pX%XV._.@X#.b >                                                 ",
"                                          8 K E 0././.(.pX .i %         < f.%X^.`._.x.@.w                                                   ",
"                                          8 b L :.u.!.OXpX*.{ 8       , z ^ #X'.^.@Xv. .r                                                   ",
"                                          * t ..;.0.!.OXaXv.o.1       5 Y x.#X^.~.$X#.B &                                                   ",
"                                            r  .E 0.m.oXoXyX .k r qXv 7 P &X%Xu.].U.#.f @                                                   ",
"                                            e } ..<.y.M.sXsXl.#.v _ M ^ h.zXOXC.%X#.N +                                                     ",
"                                            = i | L 2.m.OXoXP.~ 4 M j R $X&X(.*XU.U g X                                                     ",
"                                              u K y 2.y.m./.W.P.G l G U.&XW..XfXa.U 3                                                       ",
"                                              % i >.<.2.i.^.V.~.P.e.Q.2X].W.XX Xa.b *                                                       ",
"                                                y y p.>.1.R.}.V.F.-X^.u.Z.&XXXs.J o                                                         ",
"                                                  y | p.g.1.6.~.Z.A.^./.oX.X@.R 5                                                           ",
"                                                  9 0 | o.p.9.e.i.i.m.oXM.X.X.4 O                                                           ",
"                                                    . 8  .@.@.p.0.2.y.d.g.I y 8                                                             ",
"                                                        * )  . .p.>...| i 9 e                                                               ",
"                                                          % u } } } i u 9                                                                   ",
"                                                                                                                                            ",
"                                                                                                                                            ",
"                                                                                                                                            ",
"                                                                                                                                            ",
"                                                                                                                                            ",
"                                                                                                                                            ",
"                                                                                                                                            ",
"                                                                                                                                            "
};
