/* XPM */
static char *da08386637104afefce19be1ea4b0eacfeMQ0OfkXLb9ZXdn[] = {
/* columns rows colors chars-per-pixel */
"70 70 256 2 ",
"   c #050609",
".  c #000414",
"X  c #020B15",
"o  c #010C1C",
"O  c #070819",
"+  c #00131C",
"@  c #0C1418",
"#  c #131517",
"$  c #15080C",
"%  c #000C24",
"&  c #010C2C",
"*  c #000625",
"=  c #001324",
"-  c #01142C",
";  c #011A2D",
":  c #001A24",
">  c #010E33",
",  c #011434",
"<  c #011B33",
"1  c #01153B",
"2  c #021C3A",
"3  c #0C1A37",
"4  c #121833",
"5  c #002233",
"6  c #02223C",
"7  c #06283B",
"8  c #0D2932",
"9  c #200C0D",
"0  c #031C46",
"q  c #001F50",
"w  c #032747",
"e  c #033549",
"r  c #032854",
"t  c #043A57",
"y  c #193C58",
"u  c #152B4D",
"i  c #053966",
"p  c #043D79",
"a  c #0D3568",
"s  c #293359",
"d  c #08465B",
"f  c #194559",
"g  c #14464D",
"h  c #24465B",
"j  c #274955",
"k  c #094967",
"l  c #164768",
"z  c #175268",
"x  c #01457B",
"c  c #004B7D",
"v  c #084677",
"b  c #124C7C",
"n  c #194875",
"m  c #045679",
"M  c #1A537A",
"N  c #0A546A",
"B  c #26476A",
"V  c #344869",
"C  c #264576",
"Z  c #265475",
"A  c #31536E",
"S  c #196677",
"D  c #346879",
"F  c #496779",
"G  c #57717E",
"H  c #46566F",
"J  c #103F85",
"K  c #014382",
"L  c #014C83",
"P  c #034D8C",
"I  c #0A4986",
"U  c #164984",
"Y  c #015385",
"T  c #03548B",
"R  c #0C538D",
"E  c #05598A",
"W  c #1A5588",
"Q  c #174D98",
"!  c #035B92",
"~  c #095693",
"^  c #1D5595",
"/  c #1B549C",
"(  c #175797",
")  c #0C4D92",
"_  c #25558A",
"`  c #224F9B",
"'  c #225494",
"]  c #22559B",
"[  c #265996",
"{  c #2F548A",
"}  c #0B6597",
"|  c #15679A",
" . c #116A8B",
".. c #3A7B8A",
"X. c #286697",
"o. c #346B9A",
"O. c #3A7998",
"+. c #2C6C89",
"@. c #1C54A3",
"#. c #1C55AA",
"$. c #1957A7",
"%. c #1254AA",
"&. c #2257A5",
"*. c #1C6AA4",
"=. c #1C75A4",
"-. c #0865A2",
";. c #2869A6",
":. c #366AA5",
">. c #2678AB",
",. c #3C7BA3",
"<. c #3B76AB",
"1. c #3777A7",
"2. c #3977B4",
"3. c #2A74B1",
"4. c #425B82",
"5. c #477788",
"6. c #477C99",
"7. c #4F738D",
"8. c #467BA8",
"9. c #467BB6",
"0. c #5278A4",
"q. c #667D8F",
"w. c #39849B",
"e. c #36808F",
"r. c #2A88A9",
"t. c #3583A4",
"y. c #3B84A3",
"u. c #3C83AA",
"i. c #3D8AAB",
"p. c #3787A7",
"a. c #2988B6",
"s. c #3787B6",
"d. c #3992B8",
"f. c #3C94AC",
"g. c #2892A7",
"h. c #43839C",
"j. c #4C859C",
"k. c #488698",
"l. c #54849B",
"z. c #588899",
"x. c #4B858F",
"c. c #4385A3",
"v. c #4C84A3",
"b. c #4384AB",
"n. c #4C83AA",
"m. c #4A8BAC",
"M. c #468BA6",
"N. c #5389A7",
"B. c #4793A8",
"V. c #4889B5",
"C. c #4A95B6",
"Z. c #5796B7",
"A. c #5591AC",
"S. c #6592AC",
"D. c #55A3B6",
"F. c #67A7BB",
"G. c #6A889C",
"H. c #3A96C6",
"J. c #398FC7",
"K. c #3FA6CF",
"L. c #4699C9",
"P. c #4D97CB",
"I. c #49A7C8",
"U. c #4AA7D7",
"Y. c #54A7DB",
"T. c #59B9D8",
"R. c #51B0CB",
"E. c #66AACB",
"W. c #66B4C9",
"Q. c #65B9DA",
"!. c #77B7D6",
"~. c #77B3CA",
"^. c #5BB8E6",
"/. c #55AEE2",
"(. c #65BBE8",
"). c #6FBAE9",
"_. c #6B9DC4",
"`. c #59C3DB",
"'. c #55C2D2",
"]. c #68C5DA",
"[. c #75C7DC",
"{. c #5BC7E8",
"}. c #5AD5EC",
"|. c #5DCDF1",
" X c #5CD5F4",
".X c #5DDBF4",
"XX c #5DDBFB",
"oX c #57D7F7",
"OX c #4CD2EB",
"+X c #6CCCE3",
"@X c #67C7E9",
"#X c #77C9E7",
"$X c #65D5ED",
"%X c #6CD4EC",
"&X c #64DCEE",
"*X c #69D6EA",
"=X c #72D4EC",
"-X c #7BD4EB",
";X c #78D6EA",
":X c #6ACBF6",
">X c #77CBF9",
",X c #64D5F3",
"<X c #6BD5F4",
"1X c #64DBF4",
"2X c #6BDCF5",
"3X c #64D5FA",
"4X c #6CD5FB",
"5X c #65DDFC",
"6X c #6BDDFC",
"7X c #73D4F3",
"8X c #72DCF5",
"9X c #7BDBF3",
"0X c #73D4FC",
"qX c #7AD4FD",
"wX c #73DDFD",
"eX c #7BDCFE",
"rX c #7BD5F4",
"tX c #5DE3FC",
"yX c #5AE3F7",
"uX c #5CE0EF",
"iX c #64E2F4",
"pX c #6BE1F6",
"aX c #65E2FD",
"sX c #6BE2FD",
"dX c #6CEAFE",
"fX c #66E9FC",
"gX c #73E2F5",
"hX c #73E3FE",
"jX c #7BE3FE",
"kX c #73EBFF",
"lX c #7CEAFF",
"zX c #7BE1F5",
"xX c #73F1FC",
"cX c #86BBD8",
"vX c #8FCED9",
"bX c #A4CBDD",
"nX c #85CBE5",
"mX c #84D5EC",
"MX c #87D6E9",
"NX c #94D7E8",
"BX c #84CAF7",
"VX c #84DCF3",
"CX c #8BD6FE",
"ZX c #83DCFE",
"AX c #8BDBFD",
"SX c #85D6F5",
"DX c #95DBFA",
"FX c #94CCE5",
"GX c #83E3FE",
"HX c #8BE3FE",
"JX c #84EBFF",
"KX c #89E6FA",
"LX c #93E3FD",
"PX c #97E7FC",
"IX c #8AF1FC",
"UX c #A4E2F2",
/* pixels */
"+XzXMXNXNXvXbXbXvXNXnX#XeXkX5XXXXXaX5X6X6X0X0X6X4X6X5XsXdX.X}.;XNXG.5 ; S.UX#XgXuXyXiX5X5X3XXXfX5XpX2X6X6X6X5X5XaX.XkX=XnXUXbXbXbXNXNX;XIX+X",
"zX].S g g g g g g S R.JX,X|.dX5X5X5X5X6X6X2X6X6X6XkXXX XhXpX*XmXS.7 X + e F.KX+XpXdX5X5X6XsXXXXX5X2X2X6X6X6X5X5XoXOX&XR.N f D h h f d S ;X;X",
";X[.d + - + = O 5 e.+XhXsX5X6X5X5X5X5X6X6X6X5X5X5X X6XwX:XGXLX~.e + j j o e ~.PX+X7X1XaXdX5XXX5XaX2X2X6X6X5X5XtXXXxX2X+Xw.= % - o % = k ;X;X",
"+XnXd : 3 - - , e.;XlX1XdXkX3X3X6X6X6X6X6X5XiXiXaXoXsXeX#XAXE.t + 8 x.x.e + h F.NXVX2XpXaXoXoXhXsX1X6X6X6X6X5X5X.XkX1XjXVX_ , 2 , - = f MXMX",
"VXMXe & s s s { DX7X5XaXoX.XsXhX0X6X6X5XiXfXtXtXaXdX,X:XPXcXl & : D x.x.D 8 o B FXDXzX&XfXaX5X6X5X6X5X6X5X6X5XiX.X.X2X7XrXBXO.r V u * t NXSX",
"MXMXe & u V 4.0.BXeX5XXXaXXX1XhX6X6X6X6XiXiXyXtXoXaX3XqX#XM & - j x.z.x.x.z * & M E.jXpX.XfXsX3X5X5X6X5X6XaX5XpX1X5XeX%XZXBX:.n A u & a MXMX",
";X[.d & 0 C a a 3.eXkX|.dXdX}.6X6X6X6X1XiXyXyXiXtXoXhXeX,.t r t x...e.e.k.l.B w t C.8XsX.XyX5X3X6X6X5X5X5X6XpXpX&XhX4X:X>Xs.p W y 1 & z MXBX",
"MX[.d < l _.o.p Y H.3X5X5X1X1X2X5X5XaXpXpX1XiXyXiXdXhX<X@X#XnX~.x.x.z.N.e...F.LX!.=X%X2XsXaX4X6X5X5X5X6X6X5X1X6X2XwX2XeXH.Y Y W _.f - k mX-X",
";X+Xd m #XLX(.E T T K.0XjX6X|.dXfX X.XsX2XgXhX1XkX|.6X*XgX;XIXF.B.e.B.x.v.y.Q.-X8XsX6X6X6X4X6X6X6X5X6XaX3X6X6X2X<XJX8XI.Y c } Y.PXE.N e *XgX",
"zX&Xg.D.lX2X$X/.! K *./.0XwX,XpX5XfXdXsX1X2XwX1X,XsXxX1X&X*XgX'.e.w.A.j.c.t.`.kXiXiX6X6XwX4XwX6X3X5X6XhXdXhXhXhXeX7X^.E ! } U.0XSXmXR.r.gXgX",
"gX&XOXxXxXuX3XlXL.~ K *./.GXkX,XoXaX5X2X2X2X7XeX3XkXaX.XxXuXpX'.t.v.v.v.b.t.`.fXyXtX5X6XeXwX6X6X3XsX6X6X6X4X:X0XeX(.} Y Y K.4XlX$XjXkX'.dXyX",
"gX&XfXyXyXyXtXsXeXL.P K >.:XGX6XsX5X}.3XlX7X$XjXhX6X}.iXfX&XiXR.p.V.6.n.m.p.`.1XtXtX6X6X4XwX6X6XhXhX3X|.4X6X4XZX:X>.c Y H.:XlX3X6X2XpX1XxX}.",
"pX.XfXuX}.fXfX,XeX>XL.) x >.@X0X5XhXsXwXkXeX3X6X5X5X5XkX}.2XJXT.w.B.6.n.b.i.Q.lXaXaXsX6X6X6X6X6X4X6X2X6XkXeX0XqXs.v L J.0XeXkX.XhX,X5X5XdX5X",
"dX1XfXfXiXpXfXsX3XZX:XJ.L x >.s.J.,XlX4X,XhXdX5XXX5XkXsX@XKXVXC.O.m.M.M.,.b.P.AXeXwX2XaX5X5X6X6X,X<XlXhXOXU.H.a.L R 3.BXwXhX}.dX4X6XkX6XXXfX",
"5XaX6XsXgX*X8XhXwXeX0X:Xs.c I L Y H.:XwX,X6XdXtXaXaX5X4XqXAXM.Z w.c.c.y.y.c.+.Z.nX-X<XpXtXiXfX2XwX<XlX,Xa.} ! K L 2.>X>XJX+X&XiX3XeXlX6X X6X",
"oXkXsX2X8X2X8X,X6X4XwXGX/.E L R x } U.eXkX3XtXtXtXXX6XeXAXW.r l Z.w.w.w.A.A.w t cX#X=X2XfXyXyX1XkX$XhX/.E x ! P ) (.AXeX%XkXiXiXeX4X4XwX6X5X",
"aXaX5XsXaXaX2XpX2XhX6X:Xa.} U.3.! P J.eX4X5XfXyXfX}.gXVXF.d % B v.b.c.v.k.l.f ; g ~.NX-X&XoXtXoXhX7XZXa.E c a.J.! J.4XjX6X1X1XgX6X6X6X6X6X6X",
"aX5XaX5XaX6XpX6X6XhX6XhX{.`.eX^.~ P J.:XjXXX XiXiX$XVXW.z : , B n.b.n.v.6.z.f ; ; f !.MX*XxXyXtX3XeXeX=.E ~ (.qXK.^.3XsXsX6XsX2X6X6X6X6XsX6X",
"5X5XsXaXsXaXaX5X6XsX,XhX6XeXlX:X) ) R J.qXlX3X6X$XKX!.N ; - 3 B N.8.c.v.l.z.h ; < = Z nXHX,X5XsXeXqXL.E E | >XHXhXwX6X5X6XsXsX2X6X5X6X6X6X6X",
"6X5X6X5X5X6X5XsX5XhX|.4XsX6X4X^.R ) x T U.qXeXGXeX#X+.& < w % h v.c.h.l.x.0.y ; 6 6 & +.BXqXeXjXZXU.E L E ( :X0XeX6XsX6X6X6X6X2XsX5XsXaX6XaX",
"6X6X6X6X6XaX6XaX5XsX3X4XhXwX0X:XR R R E ( J.).>XCXX.0 , 0 , % V v.c.h.j.l.z.y ; , 0 2 0 8.DXBX).P.*.L ~ c E >X0X<X4XsX5X5X5X6X6X6XaXsX6X5XsX",
"6X6X6X6X6X5X5X6X5X6X6X6XwX2X8XZX>.T P ( P ~ 3.2.9.U q 0 0 & o V l.c.h.j.6.l.y , 1 > 0 q p 9.P.&.| Y T T x s.HX7XhX1X1X5XsXsX6X6X5X5X5XaXsX5X",
"2XsX2XsXaX6XaXaX5X5XsX6X4X2X2XwX(.| x ! ~ P P K p { C q u , % B l.c.h.j.j.z.y > 0 0 q { U i Q K ~ P P L | T.GX<XkX2X.XiXdXsX6X6XaXsXaX6X5XaX",
"2XpX6XaX6X5XaX6XdX3X6X6X6XsX2X8XGXH.E P ~ ) ) Q ` p { C w , 3 h v.j.k.M.j.0.B 0 > q C C [ [ x ( ~ ! Y Y L.7X7XeX&X1XiXdXsX5X4XwX6X5XsXaX5XaX",
"fX.XpXdXpX.X5X6X2XsXhX6X6X2XsX6XhX2XU.-.x K P I J Q _ n l w < f A.6.6.v.0.6.n , r B a _ ^ x L L Y K } L.qXZXwX$X&X&XfX&XxX2X8XwX1XlXpX XsXsX",
"1XiX.X1XhXpX2XeX@X*X8X<X2XhX2X&X$XwX4X{.U.Y.Y.P.9.i b b b l 2 n 0.6.N.v.v.6.n w k _ _ i v 1.L.J.H.L.^.>XqX@X%XkXpXiX&X&X*X'.IX=XhX&X$XdXdX5X",
"yX.XpXkXpX=X;X=X .R.VXjX8XgXgX6XwXkXlXeXZXZXZXCXAXx i p M M i Z v.0.n.8.n.8.M t l b b r | CXHXZXqXqXAXAXeXqX8XwXgXpXgXzXD. .MXDX;X*XgXxX$X<X",
"fX XkXgX].KXnX..5 e.!.[.Q.`.^.{.@X`.T.T.T.T.Q.).BXu.v b M v U n 0.n.V.8.V.V.W v W M W U V.#X@XQ.@X(.T.Q.(.@X@XT.`.T.`.;Xw.< h.NXmX;XgX;X,X2X",
"aXaX2X+X;XNXl.+ ; D l.w.y.d.d.a.r.r.r.i.d.i.p.p.,.C.<.1.o.b n U [ 8.V.2.b.o.m U b o.O.n.V.y.p.p.y.i.i.i.r.s.i.i.d.r.w.M.+.+ 5 6.IX;X+X;XlXzX",
"XXdX<XVXPXk.; X ; F 0.6.y.b.>.p.u.y.y.i.M.y.y.y.O.u.Z.9.9.o.p ` U o.P.V.:.W x b W 9.8.V.m.O.C.y.O.c.M.u.u.<.s.s.p.u.y.6.5.5 . 8 k.gXIX;X;XxX",
"5X3XwXSXS.5 X 8 X F G.q.N.V.s.P.V.m.n.c.c.c.M.m.C.O.8.8.9.9.` J J _ 2.1.W Y c W 8.V.n.0.n.n.n.O.M.M.c.b.V.V.L.V.u.Z.A.0.7.- . o 7 D.KX;X`.gX",
"wX0XAXF.7 + 8   o H 7.4.8.<.;.:.:.:.8.o.o.O.O.o.o.8.:.V.<.:.9.J ] U W ( I ( ( X.<.:.8.o.o.8.+.8.O.o.O.1.:.:.:.2.:.2.o.0.A O # X   e D.PXKX+X",
">XAX~.e   @ @ O & B { W ^ Q &.&./ / / / / / / ] ] ` ' Q ' ' ' ^ ] ^ ( ( ( ( ( ( ( / ( ^ ^ ^ ^ / / / ] ' ` ` ` @.%.) ( ' Z % X $     8 W.IX].",
"DXcXu X #   X o & C _ / @.@.@.Q / @.@.` @.&.@.@.&.@.` @.&.] ] ] / / / / / / / / / / / / / / / @.@.%.@.` ` ` @.#.%.%.$.| n o     $ $ : 8 vXIX",
"!.Z X . @ #   O & C [ &.&.#.#.@.$.$.@.#.&.&.&.&.Q ` ` @./ / &.@./ / @.@./ / @./ @.@.&.@.@.@.@.@.#.#.#.` &.&.#.#.%.%.%./ n % @ $ 9   X + g ;X",
"Z.2 + +   #   O & C ' / $.$.%./ @./ @.` / Q / / ` $.@.@.@.` #.#.@.@.$.@.@.@.$.$./ / @./ @./ / @.#.#.@.` ` ` ` @.%.%.#.] C % @ $ $ $ @ : 5 F.",
"MX..o + @   # O & C { ` $.%.$.%./ / / ] / ' / / @.@.$.@.&.#.#.#.#.#.%.@.$.&.#.$.@.&./ *.] &./ / #.#.] ] ` &.&.@.#.@.&.[ C * O $ $ $ + : ..nX",
"DXNXD X X $   . & C { ` $.Q -./ @.] / ] [ ( ^ W W Q Q ( #.#.#.#.@.#.Q $.$.&.@.@.@./ / / / | / / / &.] ` ` [ ] / Q Q ' { B * O $ #   + F vXHX",
"].VXNXA : 8 . O * C { [ ^ ) ( ( ^ Q ' ^ W W W W W ( ( | #.#.%.Q Q %.@.@./ / / &.] / ( ( ( ^ ( ( ^ / ( ' _ _ ^ ^ ( ^ ' { V & O O : + D PX-X=X",
"lX].MXvXh . 4 * > 4.0.0.9.<.2.2.<.8.<.,.,.,.,.t.,.1.1.<.2.2.&.@.) ` ;./ Q Q ' ;.2.2.2.<.<.<.<.<.<.<.1.,.8.<.<.<.<.1.:.0.A - O . + z vX+XzX2X",
"sXhX7XSXcXf o 2 & 4.S.0.8.n.u.C.V.8.u.c.b.M.y.M.O.i.V.V.L.:.) Q J ( 2.2.| U v W :.P.V.9.C.s.1.V.b.V.C.m.u.m.V.V.b.m.v.6.F ; X = z W.KX%X6XsX",
"aX5X<XqXDX~.Z % 2 5.S.8.c.n.y.,.O.V.V.b.y.M.i.y.C.y.u.b.1.' v b ] :.V.b.o._ b W _ o.b.8.1.C.C.s.V.s.8.y.y.t.w.p.y.y.B.h.5.< X f W.KXgX$XhXsX",
"tXXXhXwXrXPXE.e - +.N.6.h.N.M.w.u.M.i.t.,.p.f.M.w.,.C.,.b b M W ,.,.V.V.8.o.W b M W b.P.,.1.V.,.b.u.b.V.d.i.i.f.t.w.B.k.D + e ~.LXeX0X4XjXhX",
"tXtXkXdX@XeXZXE.d A.nXnX[.#X#X-X#X).].#X#X#X#XrX).BX!.O.k n n C b.6.m.n.b.8.Z l M n ,.!.BX).#X>X).#X#XQ.@X+X+X].+X].'.vXe.e F.PXrX:X0XeXeX0X",
"aXXXaXsX6X8XeXZXf.W.-XZXVX-X7XeXZXHXHXGXeXqX>X:XDXBXV.b M C t l v.h.h.6.n.n.n t M v M P.PXDXBXCXCXCXZXAXGXeXeXjXJXzX=XKX`.f.PX=XeXwXeXeX3X4X",
"5XkX3X3XkXhX<XgXzX=X;XzXjXhXwX6X4XeX@XH.*.=.>.*.3.;.b i { a > B N.h.h.h.v.c.v 0 a b b ^ 2.V.>.>.2.t.L.4XGX4X X2X`.*XgX$XgXzXjX2XhXhXhX6X4XeX",
"2XlXgX1X6XaX1XhXlX2X&X2X5XsX5X5XZX{.a.! P P P P K R ^ U n 0 & B N.k.h.h.N.v.k 0 r p W U K P P T x c ~ H.|.6XsX6XdXkXIX$XhXsX3XsXyXyXXX6XhXwX",
"2X2XsXdXpX1XsXsX*X2XkXhX5XaXfX5XeX3.L P -.! P ~ I ^ _ r 0 , 2 f k.w.h.h.N.v.l 0 0 r p [ ) W ( P ~ ~ P T J.6XlX1XgX}.1XhXsX XlXXXaXfX1XsXsX5X",
"pXsXaXpXsXpX8X2X8X2XhX8X6XsX6XeXY.I P ! ! T p I _ a u 0 2 3 - h j.k.w.B.h.k.f , , , s a l W v c I @.) T E T.JX$X2XgX2X2XkXsX,XdXsXpXpXpXsXpX",
"aXaX5XsXsX2X8XgXzX8X8XwXeXhXwXeX*.Q $.L L =.J.E.7.q 0 > 4 - = f M.h.w.w.w.k.g - > & > 3 w o.D.2.( ) K ~ c =.:XJX8XhXpX1X2X2X6X6XpXpX2XsXsX2X",
"6XsX6XsXwXpXgX2XkX<X<XwXwX6X6X:XR ) ) L =.^.ZXCX0.0 0 4 ; 3 % j j.h.w.M.x.k.g - 4 4 & 0 1 m.PX#X/.3.K ~ E } @XGX$X2XgXwX2XhXsX,XpX6XwX6X6X6X",
"wX6XwX6X6XpX6XsX2X2X6XhX6XwXhX(.( P K >.^.eXHXCX8.> 0 0 % 4 ; y j.M.y.k.x.k.f - , 3 > w , m.IXqXCX/.( L Y | >X:XeX7XhXhX1XsXdX&XsX2XsXsX6XgX",
"wXwXwX6XsX6X6XaX1XsXhXsX:X5XJX0X( I | ^.jX0X0XZX_.0 1 , - 3 ; h j.c.w.k.x.l.y - & 4 3 1 w E.8XqXCXBXY.| c | ZXZXHX0X2XwX$X1XdXpX6X6X6X6X6XwX",
"eX6X6X6X6XsXsXsX6XdX6X3XK.H.^.Y.R I d.0XjX6X<XrXmXb , - 2 - & j v.k.h.M.j.l.f - 3 0 1 1 M AXwX2XeXGX0XJ.c } (.>XL.Y.:XeXwXpXpXiX6X6XsXwX6X6X",
"6XwX6X6XsXsXaXaXdX6X4XeXH.E =.*.R c U.eX6XkXhX$XHXE.k < 6 - - B v.h.h.k.7.z.y , , & 1 l Z.GX2X3X6X0X0XH.c Y *.3.! L.0XlXhXpXiX&XsX6X6X6X6X6X",
"6X6X6XsXsXaXaX5XsX3X6XIXU.x E c Y Y @XJX X6XaX2X<XPXM.w 2 ; 7 h j.h.h.j.0.z.y , w & w E.LX=XsXdX6X2XJXT.Y E L Y Y ^.KXeX%XpXxXpXsX6XsX5XsXsX",
"sXsX.XsXdX3XdX5X3XeXeX@X} L R I | Y.eXhX3XaXiX1X%X=XDXA.w - < y A.h.M.j.5.S.y - w 2 S.PX#X9XhX.X1X6XlX0XL.} L ! L *.:XeXlXwX1XpXkX,XsX5X.XkX",
"1X1XdXsX5X6X5X6X4XjX@XE ) R P.).@X0XeX<X,XaXdXpX2X+XVXMXN.w & Z v...6.j.v.S.f 2 , N.DXSXrXlXsXdXkX1X,X6XeX(.U.P.L ! ! 4XeX<XgXhX$X6XhX5XdXdX",
"sX}.kX6X,XkX6X0XGX^.| Y p Y.BXCXGXjXwX1XaXdXsX1XkXgX7XSXNX..2 t A.M.M.k.N.j.e w O.DXDX@XeX2X}.sXpXpX<XhXjXeXqXqXJ.x m r.0X4XwX2XjX2XhX1X6XdX",
"zX8X2XlX<XeX0XeX4X*.Y E J.qXPX(.<X<X6XhXdX5X1XaX,XlX8X#XPXnXO.l h.j.k.6.v...M +.LXAX+X9XlX3X6XsX.XaXkX6X<X4XeXjXqXa.E c r.eX0X0XeX%XJXgX$X2X",
";X;XR.9XAXZXBX>X>.Y Y >.qX0X0XjXhXsX6XsX5X3X5XdX1X6X8X=XSXmX!.m.w.k.v...M.h.B.[.;X=X+XlX1X3XIX3X6XsXsX6X2XhXeX0XeX0X=.m c H.ZXqX@XSXVXT.9X=X",
"KX#Xm B.AXUX>XV.c E | :X4XjX XkXkXfX1XaXsXsX6XsXsX6XwXjX=XVXAXW.h.M.N.k.M.k.W.PX=XzXgX1X2X1X6X4X6X6X3X6XsXhX6X2XeX7X{.} x c Y.>XDXPXw.S GXGX",
"DXnXe t Z.BXV.b E  .@XeXkXoXxXOXyX5X5XsXdXhX6X3X6X6X6XeX$XGXPXQ.6...h.h.B.B.Q.;XzXxXkXsXkXsX4XkX6X6XsXhX2X$X*X2XhX<XeX^.E R P P.SXF.e e VXKX",
"nXDXk , i n.M v I Q.ZXhX XfXfXfX.XpXdXsX3X5X5XdXsXsX1X$XI.t.i.c.A.k.k.x.x.e.B.p.g.d.*XsX XhX6X6X6X6X3XhXkXpXpXsX6X6XeXeXU.Y I U N.e % k MX;X",
"MXnXd % e l y M P.KXjX1XsXdXkX$X2XpX6XsXsXaXaXaXfX.XpXzXB.7 = 6 F z.x.z.z.D < ; w C.jX6X3XaX5XdX6XsX6X6XwX6XpXsXaXsXhXeXZXC.v z h 5 o d VX9X",
"mXvXe o w A D 0.AXGX{.5XkX1X6XjX8XwX8X6X6XaXtXtXyXxXpX=XMXh.6 + g 7.q.G G e o 7 A.-XjX2XhXdX.XiXaX5X6XgX8XgX6XsXaX X5X4XrXCXA.f A 8 % g VXgX",
"mXMXz ; e u w w !.ZX8X1XfX5XhX2XgX8XwXsXsXaXaXaXyX1XpXzXKXNXk.- = A G.x.g X 5 j.DXLXqX2XkXdX.XfXaXsX6X6X8X6X6XsXkXdX6XeXLX!.z 5 j 8 o d KXgX",
";X[.d X = - % - N W.IXlX1XaXdX,X6X6XgX2X6XsXaXaXfX XdX8X+XPXnX+.: : G A X @ x.FXmXZX<X1XdXaX3XhXaXsX6XwXgX8X2XsX.X3XsXlX@XZ = < 8 X o l ;XgX",
"KX#Xk % = % o = = N R.pX3X1XdXlXsX2X6XwX6XsX6XaX5XkXdX$X;XVXVXnXD X 8 : + D vXMX#X9XhX6XsX5X5XdXaXaX6XgXwXgX6X6XdX3XlXR.k < % X   X o d #X*X",
";XmXh.5.q.q.G G x.w.T.lXkXdX X3XwXpXgX2XwXwX6XsXaX5XsXhX8X=X-XLXvXj : X A vXUXnX;XhXhXsX5XhXdX1X6XsXsX2X6X8X8XsXhXpXeXD. .D F F G F F x.VX*X"
};
