/* XPM */
static char *_647272777262[] = {
/* columns rows colors chars-per-pixel */
"70 70 85 1 ",
"  c #F45E6F",
". c #EE5E74",
"X c #F45E74",
"o c #C96974",
"O c #CC667B",
"+ c #E56574",
"@ c #EE6172",
"# c #E76977",
"$ c #E76579",
"% c #EC617C",
"& c #F66073",
"* c #FA6175",
"= c #F7647A",
"- c #F9657D",
"; c #FA687B",
": c #ED6782",
"> c #EE6883",
", c #F06582",
"< c #F96380",
"1 c #EF8C9E",
"2 c #FF8597",
"3 c #FC8C96",
"4 c #FF8799",
"5 c #F28E99",
"6 c #FD8C9D",
"7 c #E2909C",
"8 c #ED939E",
"9 c #F5929D",
"0 c #FA919C",
"q c #DB99A5",
"w c #DC9AAA",
"e c #EF8EA2",
"r c #F28EA2",
"t c #FF8CA1",
"y c #E794A2",
"u c #EA95A5",
"i c #ED95AA",
"p c #E19FAD",
"a c #F594A4",
"s c #FC91A4",
"d c #F599A4",
"f c #FA9BA6",
"g c #F495A9",
"h c #FA95A9",
"j c #FC9DAB",
"k c #DAA1A7",
"l c #DBA3AA",
"z c #DCA8AC",
"x c #DFA7B2",
"c c #E1A8AF",
"v c #F5A0A7",
"b c #F7A2A9",
"n c #FCA3AC",
"m c #FDA9AE",
"M c #FAA1A7",
"N c #E4AFB7",
"B c #ECAFB7",
"V c #EDAFBA",
"C c #FDA5B3",
"Z c #F5ABB6",
"A c #FBA9B5",
"S c #FFA7B9",
"D c #F3ACB9",
"F c #FFABB8",
"G c #E7B0B6",
"H c #E9B0B7",
"J c #E5B0B8",
"K c #EBB1B9",
"L c #F9B1BC",
"P c #FEB6C2",
"I c #E7C3C7",
"U c #E9C5C9",
"Y c #FFD7E0",
"T c #FFDBE5",
"R c #FFE4E4",
"E c #FFE8E7",
"W c #FFE7E8",
"Q c #FFECED",
"! c #F3F6EF",
"~ c #FDF4ED",
"^ c #FFEDF0",
"/ c #FFF5F3",
"( c #FDFCF6",
") c #FFF6F9",
"_ c #FEFDFD",
/* pixels */
">%.&&&@+sCSSja5sjCDNUW)(_!__!____!^l:O,.3330036sa7zR(!_)YluieabmmmCZZZ",
">%.&&&@#tCSCCa50jFDJIW)(___!__!___^xo:,.330334t0a7lR(!_)YpigeaMAAmCZZB",
">%.&&X@#tCSCCd50jFDJIW_(_______!_)^x:.<X3303666sa7zR(!_)Txur8dbmmCCAZZ",
">%.&&&@$tCSSnd59jFLJUQ__________))^xO:<<330064t0a7lT(!_)Ywii5fbmmnAZZB",
">:.&&X@$tCSCCa50jFDJIW_(________))^xO:,.2333466sa7cR(!_)TwigrdbmmmCZDZ",
">%.&&X+#tCSCCs50jFLJUQ_(________)!^xOO<<3300646sa7lR(!_)TwyrrfbmCmCZZD",
">%.&*&@+tCSCnf59jFPJUQ_)_________)^x:.<.230364t0a7cT(!_)TwyrrbbmmCnZZB",
">%%&&&@#tCSCCd59jFDJUQ_(______!___!wO:<<33006660a7lR(!_/TwyuafbmmmZZZZ",
":%.&&&@$tCSSha5tjCPNI/___________)^xO$<<4390466saykW((_)TwyirajmmmAZZZ",
":%.&=&@#tCSCCh59jAPNI^)__________)^xO:<<2300666saykW(_()TwigrgdmCmAZZD",
":$.&&&@#tCPCnd50jCPNI/)__________)^xO$<<3330366saykE((_)Twpg9dvAmCAADD",
">..&&&@$tCSCCa5sjCLNI^)___________^xO%<<33036660aykE((_)TwyiudvmmmAAZL",
">:..*&@#tCSCCd50jCPNI^____________^x:O<<3303036saykQ((()Twyg5fbmmCCADD",
">..X*&+$tCSCjd50hZPNIQ___________)^xO:<<2330636saykE(((_TwygrdvmmCZZZD",
">%.X*&@$tSSCna50jAPNI/___________)^xO$,<233064t0d7kW((_)Twii5dvmmmCZDZ",
">%..*X@$tCSCCd5sjmPNI^!___________^xO$<X33903t6saykQ/__)TwygadvAmCFZDD",
">.XXXXX%tCSCCg59jAPJI^)__________)^zo+==25stt666aulW/(_/RwiedajCCCSZDV",
":,XXXX&#tCSCCa59jmPNI^___________)^zo+==26sht669gulR/((/TquehanCCCSZVV",
":,.X*&@$tCSCCa59jZPNIQ)__________)^zo#==26stt469gulW~(_/TquehanCCCAZDK",
",..X*&@$tCCCCa59jmPNI/)__________)^zo+==45rttt6sauwW/((/TqurhanCCSAZVK",
",,XX*&&#tCSCmd59jCPJIQ)__________)^zo+==26att4ttgulW/(_/YquehajCCCSZVK",
":.XX*&@$tCSCA959jAPJI^___________)^zo+==46srtt65aulW/(_/TqiehgnnCSSZVV",
",.XX*&@$tCACCd59jCPJIQ)__________)^zo+==26sst469gulW/((/TqurganCCCFDDV",
",,X *&@$tCSCnd59jZPJI/)__________)^zo+==26htt660ruwW/(_/TquehgnCCCSZVK",
",..X*&&#tCCCCd59jmPNI^)__________)^zo+%-26tstt5sgulW~(_/TquahrnCCCSZVV",
",..X*&@#sCCCmd59jCPNIQ)__________)^zo+=-45art46taulR/(_/TqirhanCCCSZVV",
",,.X*&@$tCSCCd59jAPJIQ)__________)^zo+==26sst4ttgulE~(_/Tqu8aanCSCAZDK",
",,XX*&@$tCCCC959jAPJI~___________)^lo+==46srtt65rulE/(_/TqiahanCCCSZDV",
",..XXX@$tCSCCr59jZPJI/___________)^zo+=-26hat669guwW~(_/TquehgjCCCSZDV",
",..XXX&$tCCCCg59jCPJI^)___________^zo+==25ttt66saulW/((/TqirhrnCCCSZPV",
",..XX-X$tCSCCg59jCPJIQ___________)^zo+==26rtt469aulW/(_/TqieganCCCSZVJ",
",,.XXX&$hCSCCg55jCPxI^)__________)^zo+==4tsttt6trulW/((/Tqirh9nCSCAZVV",
",:XX*&@$tCSZmd59jAPJI~)__________)^zo+%-26att469aylE((_/TwgehtnmCCAADD",
",.XX*X@#tCCCC959jCPJIQ___________)^zo+=-46thtt60aylE/(_/TwirhrjmCAFADD",
",.XX*&@$tCCCCd59jCPJI^)__________)^zo+==25sttt6rdykQ/(_)Twirh5nmCCSADD",
",,X *&@$tCFCnd59jmPJI^___________)^lo+==26aht4659ykE/(_)Twirh9jmCCSZSD",
",,.X**&$tCCCnd89jZPNI^___________)^zo+=-26rtt66adylE((_/Twgrs9nmCCSASD",
",.XX*X@$tSSCCd59jAPNI^)___________^zo+==25htt669dykE((_)TwirhsjmCCSADD",
",,.X**.$tCSCCd59jAPNI^!__________)^zo+==26htt4608ykE~(()Twirh5nmCCASSD",
",.XX*X@%hhSCC959jCPNI!___________)^zo+==26htt4t5dykQ((_)Twgrh0jmCCSSDD",
",..XXXX.tCSCCg59jZPJI^____________^lo+==45htt4tadykE~__)TwirttjCCCSZZD",
",,XXXX@%tCSCCg59jCPNI^)_________))^zo+==25hstt65d7kE/(_)TwirhrnCjCCZSD",
",:.X*&@$tCSCCd59jjPJIQ___________)^zo+==26tht4t08ykQ((_/Twird9nCCCSADD",
",..X*&&$tCCCCd55jZPJI/)___________^zo+==45stt669dykQ/(_)Twirh6nmCCCADD",
",:XX**@$tCSCAd59jCPJI^)_________))^zo+==26sst469dyzQ/(_)Twgrs9nnCCSADD",
",.X *X@$tCSCm959jAPJIQ)___________^zo+==26sttt699ykE((_/TwirhtbCjCCACD",
":.XX&&@$sCCCCa59jCPJIQ__________))^zo+%=25artt668ykE/())Twirh9nmCCCDDD",
",,X&&&&$tCCCCd59jZPJI/)__________)^zo+--26tht46rdykE/__)Twirs0nmCCCCDD",
",,.X*&&#tCSCCg55jCPNI^___________)^zo+==46stt66sd7NR((_/Twirh5nCbCZZDD",
",..X*&@#tCCCCg59gZPJI^)___________^zo+==23hht665d8zY_!_/TwirhanmCCAZDD",
",,XX*&@$tCSCnd59jAPJI/)__________)^zo+==26rtt46sa8cR((_/Twied8nnZCZZDB",
",.XX*&@$sCCCCd59jAPJIQ)__________)^lo+==25htt460a7cR)(_)Twieh9nmjCCZDD",
",.XXXX@$tCSCCd59jmPJIQ/___________^zo+==26tht4tsa8cR/(_/Twiuh9nmZZCZDD",
",,.XXX&#tjSCCd59jCPJI~__________))^zo+==2rstt465f7cR(!_/TwirdrjmmbAZDK",
",:.XXXX$hCSCCd59jAPJI^___________)^zo+==2tatt66sa8cY((_/TwiehdnmCCAADV",
",..XXXX%tCCCm859jCPJI^)__________)^zo#==25sst660aycR((_/Tqi1h9jmCCZZDD",
",.XX  .#tSjSZ199jZPNI^___________)^zo+==4tatt6t9aylR/())Twieh5jCmCZZDD",
",,X**X@#tSCSCe99jAPNU^)__________)^zo+=-36sht60saylE/(_/TwiehrbCACFZDD",
",:XX* &#tSCCC899jCPJU/))_________)^zo+==4ssst4t0a8lR~(_/Twied9nmCCAFDD",
",,XX*X@$tCCSC899jZPJU^___________)^zo+=-46sttttsaylW/(_/Twird9nCCAZZDD",
",,.XX&&$tCCSC899jmPJI/(__________)^zo+.=4sshtt00aucR/(_)Twieh9bmCAAZDD",
",.XX**@$tSCCC999jAPxI^____________^zo+=-40att6ssdulR/(_/Twieh9nCCAZZDD",
",.XX  @$tSCCm899jCPNI/___________)^zo+==46htt40sdulE/(_)Twiea9MmCAAZDD",
",,XX&@.$tCCCC999jCPJU^!___________^ko+==46httt00aulE/__)Twird9nCCCFDVD",
",,. X&&+6ACCn903MFLHUQ((__)______)Qzo+&;33sst66saylR~(_/YwurrfMmnCZZHB",
"::.  &#+6CCCC955fALHUQ_/__(___(__/Qzo+&;30s0t630d8kR~(_/Twug5fMmmCmZHH",
":=.   @#6CCCm959MFLHUQ_(__(______/~zo#&;300st60098lR~(_/YpegrfnmnCAZKH",
":%%X &@#tCCCC599MFLHUQ)(__()(__((/Qco#*;300st6009ylR~(_/Twug6fMmCCAZKH",
">%@   @#sCCAm909nFLKUQ_/___/__(__/Qzo+=;26ss666088lR~((/Ycua5jbmmmAZBK",
"%#=&  @#0ACCm999jFLHUE(/_(/_(_(__/Qzo+=;3600t60098kR~(_/Ypig9MnmmmFZBK"
};
