/* XPM */
static char *_647278648150[] = {
/* columns rows colors chars-per-pixel */
"70 70 256 2 ",
"   c #1A0205",
".  c #1D0D16",
"X  c #0E0001",
"o  c #2B0103",
"O  c #2A000B",
"+  c #250308",
"@  c #340002",
"#  c #3C0203",
"$  c #34010B",
"%  c #37070D",
"&  c #2A0717",
"*  c #360815",
"=  c #35131A",
"-  c #1B1A25",
";  c #371B26",
":  c #2B1625",
">  c #3E2329",
",  c #362938",
"<  c #2A272F",
"1  c #192227",
"2  c #470307",
"3  c #560609",
"4  c #430612",
"5  c #560A13",
"6  c #531414",
"7  c #67050A",
"8  c #79070A",
"9  c #680B13",
"0  c #790D17",
"q  c #7D1317",
"w  c #6D1413",
"e  c #731722",
"r  c #5E282A",
"t  c #442935",
"y  c #712A30",
"u  c #471F27",
"i  c #3D433F",
"p  c #73403F",
"a  c #393645",
"s  c #483946",
"d  c #402F41",
"f  c #763843",
"g  c #3E4947",
"h  c #4D4C54",
"j  c #6F4B53",
"k  c #5A5668",
"l  c #665A66",
"z  c #686B75",
"x  c #576974",
"c  c #9B0908",
"v  c #870D15",
"b  c #89151B",
"n  c #971615",
"m  c #8F0C0F",
"M  c #A90A07",
"N  c #B80B0B",
"B  c #A2130C",
"V  c #A6161A",
"C  c #B91719",
"Z  c #B50F12",
"A  c #B3241E",
"S  c #871722",
"D  c #901720",
"F  c #B91C23",
"G  c #A81B25",
"H  c #862E32",
"J  c #AB2C2E",
"K  c #93241D",
"L  c #C50201",
"P  c #CC0201",
"I  c #CD0902",
"U  c #CA070A",
"Y  c #D40201",
"T  c #DC0301",
"R  c #D40A03",
"E  c #D5020A",
"W  c #DC030C",
"Q  c #DC0C0B",
"!  c #D60A07",
"~  c #D91107",
"^  c #C60911",
"/  c #C81819",
"(  c #D81818",
")  c #D60B0F",
"_  c #E40201",
"`  c #EB0303",
"'  c #E3030B",
"]  c #EC060A",
"[  c #ED0A0B",
"{  c #E30C07",
"}  c #F3050C",
"|  c #F40A0D",
" . c #F80707",
".. c #E91509",
"X. c #F71309",
"o. c #EC0714",
"O. c #F40C14",
"+. c #FB0D14",
"@. c #FC021A",
"#. c #FD0D1B",
"$. c #F80415",
"%. c #E31912",
"&. c #E91719",
"*. c #FC1215",
"=. c #F3141D",
"-. c #FD131C",
";. c #FE1A1D",
":. c #F31617",
">. c #D2261A",
",. c #E62216",
"<. c #F72918",
"1. c #D21B24",
"2. c #FB0D25",
"3. c #EA1924",
"4. c #E81626",
"5. c #F51324",
"6. c #FC1222",
"7. c #FE1C22",
"8. c #FB142A",
"9. c #F4192A",
"0. c #ED1830",
"q. c #D92928",
"w. c #DB3A36",
"e. c #CD2C2B",
"r. c #E82727",
"t. c #FD2126",
"y. c #FE232A",
"u. c #F62928",
"i. c #E9342A",
"p. c #FA382B",
"a. c #E62837",
"s. c #E73837",
"d. c #FB3A37",
"f. c #F22939",
"g. c #A1473F",
"h. c #FE4334",
"j. c #FC433A",
"k. c #F54539",
"l. c #F14436",
"z. c #D8403B",
"x. c #953C47",
"c. c #EA2E43",
"v. c #D73E40",
"b. c #934A4F",
"n. c #AE5257",
"m. c #B8646A",
"M. c #957177",
"N. c #D64B4E",
"B. c #FA4847",
"V. c #F94955",
"C. c #E75854",
"Z. c #FB5757",
"A. c #EB4C4C",
"S. c #FC5966",
"D. c #D8797C",
"F. c #CA6F76",
"G. c #EB6664",
"H. c #FE6B6C",
"J. c #FC6769",
"K. c #FD726E",
"L. c #FF6A75",
"P. c #EC7475",
"I. c #FE7473",
"U. c #F57B7A",
"Y. c #FD7C7B",
"T. c #F77874",
"R. c #EC6F70",
"E. c #F7817E",
"W. c #6A7787",
"Q. c #7B7A8C",
"!. c #6E7388",
"~. c #5A7882",
"^. c #D57883",
"/. c #FD7A84",
"(. c #6B848A",
"). c #73868E",
"_. c #738995",
"`. c #7B99A7",
"'. c #7C85A2",
"]. c #7CA8B4",
"[. c #71D0DB",
"{. c #5CD3EA",
"}. c #77CDE5",
"|. c #6BDBED",
" X c #66D8EC",
".X c #7DD4E4",
"XX c #74D5EC",
"oX c #74DAEB",
"OX c #79D7E8",
"+X c #6DDDF4",
"@X c #6DDDFC",
"#X c #66D9F7",
"$X c #74DDF5",
"%X c #7ADCF6",
"&X c #73DEFC",
"*X c #7ADBFC",
"=X c #76D5F5",
"-X c #73CEEC",
";X c #5EE7F3",
":X c #6AE3EE",
">X c #76E3EE",
",X c #6CE3F6",
"<X c #66E4FD",
"1X c #6DE2FC",
"2X c #6DE9FB",
"3X c #63E7F9",
"4X c #72E1F6",
"5X c #72E1FC",
"6X c #7AE3FD",
"7X c #75EAFE",
"8X c #7BEAFE",
"9X c #7AE4F5",
"0X c #76F3FF",
"qX c #89959E",
"wX c #8C8B97",
"eX c #849AA9",
"rX c #88A7B7",
"tX c #95ADB6",
"yX c #B69FA8",
"uX c #FD8384",
"iX c #FD8A8B",
"pX c #F98588",
"aX c #F58A92",
"sX c #F99395",
"dX c #F08B8D",
"fX c #DD8E90",
"gX c #9AB9C9",
"hX c #89B3C3",
"jX c #ABB5C4",
"kX c #99C3CD",
"lX c #97CADB",
"zX c #8CCFDC",
"xX c #A4CAD9",
"cX c #AECCD6",
"vX c #99CBE2",
"bX c #87D6E9",
"nX c #99D9E8",
"mX c #84DCF2",
"MX c #81DAFC",
"NX c #87D9F7",
"BX c #97DCF6",
"VX c #87CEE6",
"CX c #A6CCE3",
"ZX c #A7D8E8",
"AX c #B4D8EB",
"SX c #A4D8F3",
"DX c #B2D6EB",
"FX c #96E3EC",
"GX c #83E4FD",
"HX c #88E5F7",
"JX c #97E4F6",
"KX c #86E3E8",
"LX c #A8E5F6",
"PX c #AEE7F5",
"IX c #C7D9E7",
"UX c #CCC6D2",
/* pixels */
"&X&X&X&X&X&X5X&X1X&X1X&X&X&X&X5X&X%X*X=X*X*X*X*X*X*X*X&X&X&X&X&X&X&X&X&X&X&X&X&X&X*X&X&X&X&X&X&X1X5X1X@X1X1X&X1X5X1X&X1X5X1X1X&X5X&X&X&X&X&X",
"&X5X&X5X&X5X&X&X&X&X&X&X&X&X&X5X&X&X&X&X&X6X*X&X&X&X*X&X&X&X&X&X&X&X5X@X&X&X&X&X&X&X&X6X&X&X5X1X5X1X1X5X&X1X1X5X5X@X1X1X1X&X1X1X&X5X&X5X5X@X",
"&X&X&X@X5X&X&X&X&X1X&X&X&X&X&X1X1X1X1X1X1X1X1X1X1X1X@X@X1X1X1X1X@X3X1X1X1X1X1X@X1X1X1X1X1X1X<X1X@X1X5X1X&X1X&X1X1X5X1X&X5X1X&X1X&X@X&X5X5X&X",
"&X5X&X5X@X&X5X&X&X&X&X&X&X&X&X1X1X<X<X<X1X1X1X<X1X1X1X<X,X2X1X,X1X,X,X,X3X1X<X1X<X<X1X<X<X1X<X1X5X5X1X5X1X5X1X1X5X1X5X1X1X5X1X&X5X&X&X&X&X&X",
"5X&X&X&X&X&X&X5X&X&X&X&X&X5X&X1X1X<X<X<X<X<X1X3X1X,X,X,X,X:X,X,X:X,X,X,X4X,X2X1X1X1X<X1X<X1X1X1X1X&X&X1X&X5X&X5X&X5X1X&X&X&X5X&X@X5X&X&X&X&X",
"&X&X&X&X&X1X&X&X&X1X&X&X&X@X&X&X1X@X1X1X1X<X1X1X1X,X,X,X,X4X:X4X,X1X,X1X,X1X1X1X5X@X5X1X@X&X&X&X5X5X5X&X1X&X1X&X1X5X&X5X&X1X&X1X&X&X5X&X&X&X",
"1X&X&X1X&X&X@X&X&X&X&X&X&X5X&X5X&X&X&X&X&X&X5X5X1X4X1X4X4X4X4X4X1X5X@X5X5X&X1X5X&X*X*X*X*X*X*X*X&X&X5X1X&X@X5X5X&X5X1X&X1X&X5X&X&X&X&X&X&X1X",
"&X&X&X&X&X&X5X5X1X&X1X&X&X&X&X&X&X*X&X&X&X6X5X@X5X5X5X&X4X$X&X*X&X5X&X&X&X&X&X&X&X&X*X*X*X*XMXMX&X5X5X&X5X5X5X5X1X&X&X5X&X5X&X1X&X1X&X&X&X&X",
"&X&X&X1X&X&X&X&X&X&X&X&X5X5X&X5X6X*X$X&X&X&X&X6X&X&X6X&X&X&X&X&X&X&X@X@X&X6X@X#X@X&X*X=X*XMX%X=X&X&X&X5X&X&X&X&X&X&X&X5X&X1X&X&X&X&X&X1X&X&X",
"&X&X&X&X&X&X1X&X&X&X&X5X&X@X&X5X5X$X+X+X+X+X+X,X#X+X@X6XMXGX*X=X=X*X&X=X@X&X6X6X&X&X*X&X%X$X%X=X&X&X5X@X@X5X&X&X&X&X&X&X&X&X&X&X&X1X&X&X&X&X",
"1X&X&X&X&X&X&X5X&X&X5X&X&X&X&X5X,X,X,X,X2X2X,X,X8X9X$XXXXXNXNXNXNXNXNXMX=X$X|.|.4X4X5X7X1X4X+X+X&X&X&X&X5X6X&X5X&X&X&X&X5X&X&X&X&X&X&X1X&X&X",
"&X&X&X&X&X1X&X&X@X5X&X&X&X&X&X1X,X3X2X3X,X,X>XoX[..XBXJXnXvXvXvXvXvXvXVXBXJXKXKXoX|.|.,X,X,X,X@X4X&X&X&X&X&X&X&X&X5X&X5X&X&X&X5X&X&X&X&X&X1X",
"&X1X&X&X&X&X@X&X&X&X&X&X&X&X@X1X1X1X2X X|.oXOXbXPXLXlX`.W.h a , a a k (.rXkXFXFXbXOXoX|.|.,X2X7X5X&X&X&X&X&X&X5X&X&X&X&X&X&X&X&X&X&X&X&X5X@X",
"&X&X&X&X5X&X5X5X@X&X5X&X5X&X&X5X@X5X4X$XKXHXFXnX`.x , .   O O @ @ o +   X i (.kXzXFXHX%X|.+X5X5X&X&X&X6X&X&X&X&X&X&X5X&X&X5X&X6X5X&X5X&X5X&X",
"&X5X&X@X&X&X5X&X5X5X&X5X&X&X5X&X*X*X*XNXBXVX].(.1 .   # 3 w 8 8 8 8 w 6 #   . 1 x rXJXJXXX*X*X@X&X&X&X&X6X&X5X&X5X&X&X5X&X&X&X&X@X5X&X&X&X&X",
"&X&X5X1X5X5X&X&X*X&X&X&X1X1X5X&X&X*XNXBXCXeXh X * 6 w b n B M M M M c n K w 2 %   x gXZXVXNXMX@X@X&X&X&X&X$X&X&X5X5X&X&X5X&X&X&X&X&X5X&X5X&X",
"*X&X1X1X1X5X*X*XMX=X$X8X,X#X@X1X3X$XzXZXQ.= 3 7 q n B A ~ ~ ..[ ` T R U B B m q 3 2 * Q.AXVX%X2X@X#X5X&X%X9X X7X,X,X,X&X&X&X&X$X&X&X5X5X&X&X",
"%X%X1X3X<X1X*XMXNXOX|.|.,X3X1X1X0X[.nX(.% 3 8 B A >.>.>.,...X.X.X.+...~ ~ I M B c 8 2 O Q.PXmX:X7X@X6X+X$X8X|.,X,X1X1X5X&X$X5X5X5X&X&X@X&X5X",
"*X*X1X1X1X1X*X*X%XGX:X X3X7X$X=XbXZX(.; # 7 A e.l.l.i.i.,.....X.X.X.....( >.( / C c q @ : ].KX[.&X@X6X&X|.9X9X+X4X1X1X5X5X4X4X5X5X&X&X&X&X&X",
"%X4X1X1X1X5X*X*X=XGX7X,X7X,X|.VXlXeX: o e J z.l.l.l.l.<.<.,...X.X.X.....%.%.~ ( ( Z V H % 1 ].FXXX#X6X6X+X4X5X,X,X5X&X&X&X&X5X4X5X&X5X&X&X5X",
"%X$X1X1X1X1X&X*X&X&X1X3X,X+XOXSXjX> # w K A.k.h.p.h.l.h.h.<.X...{ ~ ~ T R T T T Y ( M m q   i cXNX=X+X4X6X@X5X+X&X5X4X&X1X1X$X1X5X&X&X5X&X&X",
"*X&X1X1X1X1X&X&X5X@X1X1X|.mXBXCXj 2 7 J q.l.j.h.h.h.h.h.p.<...{ R Y P P Y Y T T _ Y U M K 6 o x SXJXXXoX8X1X@X@X&X&X&X5X5X1X,X1X&X&X@X5X&X&X",
"*X&X5X1X@X&X*X&X7X@X2X2XoXHXvX_.+ q n z.Z.p.h.h.h.h.p.,...~ T Y P L L L P Y T _ _ Y &./ B K 3 + `.BXmX X7X<X1X@X*X*X&X5X4X1X5X1X1X&X&X&X1X&X",
"*X*X&X5X1X&X&X&X1X#X2X,X}.SXrX, 3 m e.l.p.h.p.h.h.<.%.I I I Y Y Y I P P P Y Y T T { P I / B m 3 a lXBXoX1X X@X6X*X*X&X$X1X,X1X&X&X&X1X&X&X&X",
"&X&X5X5X5X&X&X&X1X<X<X+XbXAXz O 8 A w.l.j.p.p.d.%.Q Y P Y Y T T R Y U U L U P Y T T T R U ^ Z v = W.PX.X X7X{.GX*X*X&X5X,X1X1X5X@X5X&X&X&X5X",
"&X5X&X5X4X&X*X&X1X#X<XoXnXtXt 3 m e.k.l.j.h.y.:.{ E Y E E W T T W W E E U U L P P Y Y R ! ! E V 2 , cXzX9X1X@X&X*X*X4X4X1X1X5X&X&X&X5X&X&X&X",
"&X5X1X5X&X&X*X&X1X#X8XOXZXl o q A z.B.k.h.p.&.P P P E E W o._ _ ` ' W ) E ^ U L I I Y T ! Q Q / 0 O wXFX9X,X@X@X*X*X*X4X1X1X&X&X&X&X&X&X&X&X",
"@X@X1X&X&X&X*X&X7X#X7XbXcX> 2 G e.l.k.k.p.( P L E E E W W ' T T ` ' ' W ) E U U ! R T ! T ' W ^ G 3 h ZX[.1X#X&X*XMX$X4X1X&X&X&X&X5X&X&X1X&X",
"1X1X1X&X&X*X*X&X1X#XoXnXeXo 8 A w.B.j.p.,.L L Y E E E W W T _ _ ` ` ` ' W W E E Y T T ! T T W U C 0 + tX.X:X#X6X*X*X$X,X1X1X&X*X&X&X&X&X&X&X",
"1X1X1X&X$X%X*X&X@X&X%XnXl # V Z s.B.h.( I L I Y Y Y E T T _ _ ` ` ` ` ` ' ' W W T T T T T W Y P ^ V @ (.FX|.1X7X*X%X4X,X,X1X*X*X&X&X&X&X5X&X",
"1X1X1X5X%X%X*X*X@X7XmXlXt 6 C ,.h.j.u.R L I R I P E E W T _ _ ` ` ` ` ` ` ` ` ` _ _ T T ! Y P U ) C 6 g KX:X6X+X*X%X4X,X@X&X*X*X&X&X&X&X&X&X",
"@X1X@X5X4X*X*X&X@X*XbXrX& q M h.B.p.~ I R I L Y Y Y T T _ _ _ _ ` _ ` ` ` } ` ` ` ` T T T R ! ! ) M w : hXHX1X#X&X*X$X,X1X&X*X*X&X&X&X1X&X&X",
"*X&X1X1X&X&X&X4X,XOXPXW.# v C d.B.,.I L P P Y R Y Y T T _ _ _ ` ` _ ` ` ` ` ` } ] _ _ T T T T Y I / v o eXBX@X<X@X&X&X4X,X4X*X*X&X&X&X&X&X&X",
"*X*X1X1X6X&X&X5X4XOXZXl 3 m e.B.i.( L L I P P Y T T T T _ ` ` ` ` ` ` ` ` ` ` [ ` ` T T T T T R U C n # Q.nX$X1X1X5X&X4X,X5X*X*X&X&X&X5X&X5X",
"*X*X1X1X@X&X*X5X$X.XCXs 3 V i.d.( ) L L I P P Y T T _ _ _ ` ` } ` ` ` ` `  .`  .` _ _ _ T T T R W N V 2 k nX%X<X@X&X&X5X,X1X*X*X&X&X5X&X&X5X",
"*X*X1X1X&X&X&X&X>X.XgX; 7 V s.u.I L L L P P Y Y ! T _ _ _ _ ` ` ` ` ` ` ` ` ` [ ` ` _ T _ T T T ! U G 9 , ZX%X1X5X5X&X4X,X4X&X*X&X&X&X&X@X5X",
"*X*X1X1X&X&X&X%XoXbXtX& 0 F s.%.L L P P P P Y R T T _ T _ _ ` ` [ | | |  .| | | } ] ` _ _ T T T _ L F e : CXmX1X&X&X&X$X1X,X&X*X5X&X&X&X5X&X",
"*X4X1X1X&X&X*X%XoXnXrX+ q / r.R I L P P P P T T T T _ _ ` ] ] O.*.*.*.*.*.*.*.*.| | | ` _ T T T _ P 1.e & gXmX+X*X4X*X4X1X1X5X*X&X&X&X5X&X5X",
"&X&X1X<X1X&X*X%XmXFXqX+ b e.&.Y P P P P Y Y T T T _ _ ` ] | O.*.*.*.-.-.-.-.-.*.*.+.+.] _ T _ _ ` { / b & rXBX+X*X9X$X&X1X1X&X&X&X&X@X&X&X&X",
"*X1X1X2X&X6X*XmXOXFX_.o b 1.&.Y P P P P Y T T T _ _ ` ] O.#.-.-.-.-.-.-.-.-.-.#.-.*.*.O.` _ _ _ ` ` / v & ].BX$X%X*X9X4X1X1X&X&X&X5X5X&X5X&X",
"&X&X1X1X5X&X*X%XmXFX).% n Z { Y P P P Y T T T T ` ] [ +.-.6.7.-.-.-.-.-.#.-.-.-.-.+.*.*.| ` _ `  ._ 1.D O eXJXoX$X*X%X4X1X1X1X6X&X&X@X&X&X5X",
"&X&X<X1X5X6X*X*XOXnX).$ D N Y Y P P P T T T _ _ ` ] O.O.-.-.6.6.-.6.6.6.6.-.6.#.-.-.*.-.*.] _ ` ` _ / v O rXJXoX%X%X%X&X1X1X@X&X&X&X5X&X&X&X",
"*X&X1X<X5X*X*X%XOXBX_.O D Z P T P P Y Y T ' ` ' ] } | #.-.6.6.6.-.6.6.-.6.-.6.-.-.-.-.;.:.| ] `  ._ ( v & rXJX$X%X*X$X4X<X1X&X&X&X&X&X&X&X@X",
"*X&X1X<X5X4X*X=X$XJX_.+ S C L T P P Y Y T _ ` } ` } +.#.6.6.6.6.6.5.6.6.6.6.#.#.6.-.;.-.*.:.[ _ ` _ / 0 * rXbX%X&X%X4X4X1X1X&X&X&X5X&X5X5X&X",
"*X&X1X<X5X&X*X*X$XFX`.  S F L P P Y Y T _ _ | | } $.+.-.6.6.6.8.5.5.5.5.6.6.6.-.-.-.:.;.;.:.[ ` ` { / 8 ; gXVX&X&X*X*X4X1X1X1X4X&X&X@X&X&X1X",
"*X&X1X1X5X&X&X*X$XJXrX& 0 V N P P Y Y T ' ] } |  .@.#.6.2.6.6.8.5.5.5.5.5.5.-.#.-.-.-.-.7.7.O.` ` ~ / 7 d gXNX&X&X&X4X4X1X1X&X&X5X&X5X&X&X&X",
"%X*X1X1X5X&X&X*X=XNXgX; 9 V ^ P Y Y T ' ` ] | } } +.#.6.-.2.2.8.5.5.5.5.5.6.-.=.=.-.-.;.t.y.:.{ ` ! F 7 s DX.X7X&X*X4X4X1X1X&X*X&X&X&X&X&X&X",
"&X5X1X1X&X5X5X5X&XNXCXd 5 m N ! P Y T ' [ o.| }  .+.#.6.-.-.9.0.4.3.4.4.3.4.3.5.=.-.-.7.t.y.;.[ _ ) F 3 s AXOX6X&X4X4X4X1X1X&X&X&X&X&X1X&X&X",
"5X5X6X&X$X4X1X<X1X=XSXk 4 v N R I P T ] o.o.o.o.-.;.+. .2.8.0.4.( s.V.V.Z.c.a.( 9.=.7.7.9.y.7.=.T r.V 2 z SXMX*X*X*X4X,X,X5X&X&X&X5X&X5X&X5X",
"1X@X&X$X$X4X<X<X@X+XBX!.$ S N I I Y T o.$.$.o.o.O.-.+.+.2.8.4.4.s.V.J.L.L.J.A.a.&.=.y.t.7.y.t.y.[ 1.b * qXSX=X=X*X*X4X4X,X1X&X&X&X&X&X@X&X&X",
"&X5X&X4X$X5X1X1X1X=XBXeX+ S M I Y T `  .@.@.$.$.+.-.+.+.2.2.0.0.V.J.I./.Y.I.Z.B.3.&.y.y.7.t.u.u.,.C 9 ; gXBX=X6X&X$X,X,X@X&X&X&X&X&X&X5X&X&X",
"&X&X4X4X4X1X1X&X7X*XNXgX> 9 B U T `  .$.@.2.$.$.#.-.#.#.2.8.0.c.J.I.I.I.I.I.H.Z.f.&.;.t.t.u.,.r.e.J 2 s lXmX&X<X@X&X,X,X1X&X&X&X&X&X5X@X5X&X",
"*X&X1X1X,X1X&X&X*X*XbXZXk @ n ^ Y ` } $.@.@.@.#.-.-.#.2.8.8.0.V.L.I.I.T.T.T.I.J.B.r.=.<.r.r.r.w.C.g.. ~.FX[.7X2X1X1X,X,X1X&X&X*X&X&X&X&X@X&X",
"*X&X1X3X1X3X&X*X&X*X}.FXqXo b C E ` $.$.$.@.#.=.=.-.=.6.2.0.c.S.L.I.T.E.E.E.I.K.Z.i.u.u.,.q.w.C.dXy X tXFX>X:X2X1X1X,X,X4X5X&X*X&X&X&X&X5X5X",
"MX*X1X3X3X1X&X*X*X*XOXFXkX> 5 V L { } }  .@.-.:.&.&.7.9.0.4.c.S.K.K.T.E.E.T.K.K.Z.i.i.i.q.s.A.Y.E.= g cXKX>X;X;X1X1X1X1X1X1X&X*X&X1X&X5X&X5X",
"MX*X1X3X3X3X*X*X*XMX>X>XxXk 4 D N Q }  . .+.:.<.&.3.3.t.0.4.a.S.K.I.T.T.P.T.I.Y.Z.q.q.a.w.A.K.sXj X ).FX[.>X:X0X1X5X1X1X1X&X&X&X&X&X&X&X&X&X",
"MX*X<X3X<X<X*XMXNX-X:X9XzXtX= e C ( _ +.$. .;...<.&.=.8.9.4.f.S.K.I.T.T.P.R.I.E.Z.q.e.e.Z.I.pXD.= < tXzXHX>X,X&X&X&X1X1X1X1X5X&X&X&X&X&X5X&X",
"MX&X3X3X<X@X*XMX*X*X,X>XzXZXk $ m 1.&.o.+. .*.t.:.=.=.6.8.5.9.B.H.I.I.T.U.Y.Y.I.Z./ s.J.H.iXaXb.& !.ZXnXoX4X$X$X*X&X1X1X<X1X1X&X&X&X@X5X&X&X",
"*X&X<X<X<X<X*X*X=XGX,X>XOXSXgX& v F 1.' +.-.| | =.6.6.6.8.2.9.f.J.K.I.T.U.Y.I.K.v.v.L.pXP.sXm.O a CXnXFXoX>X$X*X*X*X&X1X<X1X@X5X&X1X&X&X5X&X",
"%X&X1X<X1X1X*X*X&X&X3X:XoXVXSX!.4 8 1.( o.7.*.7.O.6.2.2.2.6.=.3.Z.H.I.T.U.Y.R.G.N.I./.aXaX^.r . wXAX}.mX>X4X$X6X*X*X&X1X1X<X5X&X&X&X&X1X&X&X",
"4X5X5X1X1X&X&X&X5X,X3X:X9X}.BXxXt 3 J A.a.) &.9.9.8.8.2.8.8.=.4.w.C.K.K.U.E.Y.R.I.pXR.sXsXf O k SXBX-X-X,X,X4X*XMX*X&X&X1X1X&X&X&X&X5X&X&X@X",
",X1X1X5X&X&X&X&X1X2X2X{.0X%X=XnXtXu 6 n.S.V.a.( r.a.0.4.0.3.( q./ z.C.R.U.uXuXuXuXpXiXaXb.O , jXSX-XGX#X:X2X9XXXMX*X&X&X5X5X&X&X&X5X&X&X&X&X",
",X,X5X&X&X*X&X@X,X2X,X X8X&X*XbXZXz . e N.I.S.c.c.a.c.a.a.a.q.w.w.N.G.T.E.pXuXpXU.dXaXb.O ; wXCXVX#X7X;X;X3X4X=X*XMX*X&X5X5X*X*X&X&X&X&X&X&X",
",X1X&X&X&X&X&X1X1X1X X7X$X{.7X*XbXAXx + 5 x.^././././.L.L.J.J.K.Y.Y.E.E.iXpXE.dXsX^.n.% : !.IXSXMX@X;X3X0X3X|.*X*X*X&X&X&X5X*X*X&X&X&X&X1X&X",
"5X5X&X*X&X&X4X&X5X5X$X4X$X4X&X$X.XLXxXx . * x.^.^././././././.pXE.iXE.E.E.iXdXfXE.p   1 W.vXLXVX*X@X@X+X1X&X$X&X&X*X&X&X&X*X*X&X4X&X&X&X&X&X",
"&X&X&X&X&X*X*X&X$X&X$X&X$X$X4X%XHX.XvXlX!.- . r m.^.aX/.aX/./.sXE.iXiXiXiXsXE.m.u   1 (.ZXLXNX-X*X&X&X$X&X$X*X&X*X&X&X&X$X&X$X&X&X&X&X&X1X&X",
"&X&X&X&X&X&X&X&X&X$X$X&X$X$X4X$X9X}.bXPXCX!.> O 4 y n.^.aXdXdXaXfXsXsXdXE.n.y # + i `.nXBX.XXXGX&X&X=X*X&X&X$X&X&X&X&X*X&X&X$X*X6X&X&X&X&X&X",
"&X*X&X*X$X*X&X$X$X%X&X4X&X$X$X$X+X4X%X.XCXDXtXk : * 4 9 H n.n.m.m.n.g.H r # @ > z tXZXzX}.*XGX#X$X&X&X&X=X&X$X&X=X&X$X&X&X*X&X&X&X&X@X&X&X&X",
"&X*X&X&X&X&X$X*X&X$X&X$X$X$X$X$X1X7X6XXXVXnXAXcXwXl > o $ 2 2 5 6 @ @ 2 4 u j wXIXxXzX.X9X6X1X{.@X&X$X*X&X*X&X&X&X=X&X&X=X&X&X&X&X&X&X&X&X&X",
"&X@X=X&X$X*X$X&X$X&X$X&X$X&X$X+X<X<X5X8XmXVXlXAXIXUXyXM.j r 4 4 # 6 r j M.yXUXIXxXlXbXHX5X X#X7X&X=X&X&X&X$X&X$X&X$X&X$X&X&X$X$X$X@X$X@X@X$X"
};
