/* XPM */
static char *_647278205468[] = {
/* columns rows colors chars-per-pixel */
"70 70 14 1 ",
"  c #6DDEFC",
". c #6CDFFC",
"X c #6FDEFC",
"o c #70DFFB",
"O c #70DDFC",
"+ c #70DFFD",
"@ c #72DFFC",
"# c #73DFFC",
"$ c #72DFFE",
"% c #76DDFC",
"& c #75DEFC",
"* c #78DCFC",
"= c #6FE1FC",
"- c #71E0FC",
/* pixels */
"......................................................................",
"......................................................................",
"....=.  ..........  ....................=.  ......................  ..",
"....    .........   ....................    ......................  ..",
"..          .       XX..                     XX...                  ..",
"..          .       X.O.                     XX.                    ..",
".XX                 X .O                      ..                X .O.O",
"O.X                   ..                      .=                XXX...",
"XXXXXXXX  XXXXXX.OOO-.-.OOO..O-O ..O.OOOOO-..OOOXXXXXXXX  XXXXXX.OOOO.",
"XXXXXXXX..XXXXXX-O.OOOOO-.O-OO.O .OOOO-..OOO-O.OXXXXXXXX..XXXXXXOO-.OO",
"XXXXXXXXXXXXXXXX.O-O.-...OOOO-O.OO.O-.OOOO.O.O-OXXXXXXXXXXXXXXXX-.OO-O",
"XXXXXXXXXXXXXXXXOO.OOOOO.O.OO.O.-.OOOO....-OOO.OXXXXXXXXXXXXXXXXOO...O",
"OOOOOOOOOOOOOOOOOOOOOOOOOOOOOOOOOOOOOOOOOOOOOOOOOOOOOOOOOOOOOOOOOOOOOO",
"OOOOOOOOOOOOOOOOOOOOOOOOOOOOOOOOOOOOOOOOOOOOOOOOOOOOOOOOOOOOOOOOOOOOOO",
"OOOOOOOOOOOOOOOOOOOOOOOOOOOOOOOOOOOOOOOOOOOOOOOOOOOOOOOOOOOOOOOOOOOOOO",
"OOOOOOOOOOOOOOOOOOOOOOOOOOOOOOOOOOOOOOOOOOOOOOOOOOOOOOOOOOOOOOOOOOOOOO",
"OO-O-O--O---.O.O----O.O---.-O-O--O-O.---O.O----OO-.O--.-O-O----O-.OO--",
"-O-O-.-O.-O------OO.--O-O-O-.----.--O-OO----.O-.OO--O-O-.---.O---O--O.",
".-O.-O-.O-.-O.OO----O---O-O-OO-OO-O----.-O.OO-----O-O-O-OO-O--.O---O--",
"O------O--O-----.OO---O..------..-.--O-O----O-O-OO.-.------..O--O.---O",
".--O.-O--.OOO-.-O-.----O-O-OO.O-OO----.-.-O-O-------.O.O---OOO--O----O",
"OO=-O-.--O----O---O-.O---O-.------O.O-O-O-.---.OO.O-----.O-.--O.--.O-.",
"--O-.-O----O-.-O-.-O--.O-.-O-O.OO.--O-O-.-O-.O------O.OOO---O.--.O--O-",
"-O--O-O-O.---O-O-O-O.O---O-.-------O.---O-O---OO-O.O----O-O----O--OO.-",
"---OO---.-O---O.--.O--.-O.O--.OO-O-O-O--.O---.-.---OO-.-----.-O-.O---.",
".O--.-O-O-.-O.--O---O-O---O--O-----O-.-O---O-O-O.O-.--O-O.O-O-.----O-O",
"--.OO-.-.-O---O.--O-O-O-O------O.-O.-O-.-O----.-O----.-O----.-O--O----",
".O----O-O-O-O---OO.-.-----O.O.--O------O-O.OO-O-O-O--O-O-O.OO-O--O.OO-",
"O-O--O-O----O-O-----.O.O-.-.O-O--OO..-O---.------O----O..------.--.-X-",
"O-.----O-OO..---O.O------O-OO-.-----O-.-O-O-OO.O-.-OO.--O-OO-O-OO-O--X",
"-O--.-O.----OO-O----O.OO--.--O--.OO-.-O-O-O------O-.--O.---.-O-OO-O-X-",
"-.-OO---.OO----.-O.O----O-O--.-O----O-O-.---O.O.---OO----O-O-.--.---O.",
"ooooooooooooooooooooooooooooooooO-oooooooooooooooooooooooooooooooooooo",
"oooooooooooooooooooooooooooooooo.-oooooooooooooooooooooooooooooooooooo",
"ooooooooooooooooooooooooooooooooOooooooooooooooooooooooooooooooooooooo",
"oooooooooooooooooooooooooooooooo--oooooooooooooooooooooooooooooooooooo",
"oooooooooooooooooooooooooooooooooooooooooooooo-Xoooooooooooooooooooo-O",
"ooooooooooooooooooooooooooooooooooooooooooooooo-oooooooooooooooooooo=-",
"oooooooooooooooooooooooooooooooooooooooooooooo-XooooooooooooooooooX-O-",
"ooooooooooooooooooooooooooooooo-ooooooooooooooX-oooooooooooooooo-X-X-X",
"----------------------------------------------------------------------",
"----------------------------------------------------------------------",
"----------------------------------------------------------------------",
"----------------------------------------------------------------------",
"----------------------------------------------------------------------",
"----------------------------------------------------------------------",
"----------------------------------------------------------------------",
"----------------------------------------------o&o##o##o##o##o#oo&-&--O",
"#-O-&-O&-&-&--&-&-O&-&-&--&-&-O--===-------OO-&-&-&-&-&-&-&-&-&-O&&-&-",
"o&&--&--O-&-O--&-&--O-&-O--&-&---====--------&-&&&&&&&&&&&&&&&&&&&&&&&",
"&--&---&--&--&O----&--&--&O------===----&--&-&&-&&&&&&&&&&&&&&&&&&&&&&",
"--O-O-&--&-OO-&-O-&--&-OO-&-O-&--===-----&&-&--&&&&&&&&&&&&&&&&&&&&&&&",
"&-&-O-O--&----&-&-&--O-&----&-&--=----&-O&-&&-&-&&&&&&&&&&&&&&&&&&&&&&",
"-O-&&--&O-&O-&-O---O--&--&O--&---=-----O--&-O&-&&&&&&&&&&&&&&&&&&&&&&&",
"-&---O----&--O-&-O--&-O-&--&O&-O----&--&-&-&&&&&&&&&&&&&&&&&&&&&&&&&&&",
"&-O-&--&-&-&--&-&-&O-&-&-O&---&-------O-&-&-&&&&&&&&&&&&&&&&&&&&&&&&&&",
"-&---&O-&-&-O&-&-&--&-&-&--&-O-&---&--&--&&&&&&*&&&&&&&&&&&&&&&&&&&&&&",
"O-&O&--&-O-&--O-&-O--&----O---&---&-O--&&O&&&&&*&&&&&&&&&&&&&&&&&&&&&&",
"--&--O&--&--O---O-&-O&-O&--&&-O---&-&-&-&&&*&&&&&&&&&&&&&&&&&&&&&&&&&&",
"-&-&----&-O--&-&-&----&--O-O-&-&---O-&-&&O*&&**&&&&&&&&&&&&&&&&&&&&&&&",
"&--&-&-OO-&--&-O-&-OO-&--&-O-O--&-&-&-*&&&&*&**&&&&&&&&&&&&&&&&&&&&&&&",
"-O&--O&--&--&----O&--&--&---&--&-&-&-&&&&&*&&&***&&&&&&&&&&&&&&&&&&&&&",
"&--O&--O-&-O--&-&--O-&-O--&--&&-&-&-&-&&&*&&***&&&&&&&&&&&&&&&&&&&&&&&",
"-&---&--&-&-&O-&-&--&-&-&O-&-O-&-&-&--&&*&*****&*&&&&&&&&&&&&&&&&&&&&&",
"O-O--&-O-&--&-&-&--&&-O&-&-&--&--&-&-&&&&&&&*&*O&**&*&*&*&**&**&*&&*&*",
"&--&&---&-O--&---O&--&--O-&-O--&&-&-&-&&&&*&&*&**&&O&*&*&*O&*&&*&**&*&",
"-O----&-O-&-O&-O&--O---&--&--&O-O-&--&&&&&&&*&&*&*&*&**O*&*&&*&&*O&**&",
"&--&&O-&-&----&--&--O-&--&-OO-&--&-&&-&&&&&*&O*&*&*&*&*&&*&O*&*O&**&&O",
"-&O--O---&-O&--OO--O--O--O-&--&-&-&-&-&&&&&*&*&**&*&&*&*&*&*&**&&O*&*&",
"&--&&--&-O&--&--&-&--&-&--&--&-O-&-&--&*&&*&*&*&&*&**&&O*&*&*&O***&*&*"
};
