/* XPM */
static char *_647278402087[] = {
/* columns rows colors chars-per-pixel */
"70 70 256 2 ",
"   c #2C0B05",
".  c #3C0403",
"X  c #3E0C03",
"o  c #3B050C",
"O  c #360A0C",
"+  c #3B0B0B",
"@  c #350703",
"#  c #3D1507",
"$  c #3A0713",
"%  c #391618",
"&  c #261907",
"*  c #440503",
"=  c #4C0300",
"-  c #440B03",
";  c #4B0A02",
":  c #4A050A",
">  c #430A09",
",  c #4C0D0B",
"<  c #44050A",
"1  c #530300",
"2  c #5A0200",
"3  c #540C04",
"4  c #5C0C04",
"5  c #530C0A",
"6  c #5D0E09",
"7  c #5C040A",
"8  c #4D1104",
"9  c #4C120C",
"0  c #47130B",
"q  c #531106",
"w  c #5A1206",
"e  c #52130C",
"r  c #5C140E",
"t  c #5C1C0D",
"y  c #4B0E13",
"u  c #420D13",
"i  c #540E12",
"p  c #510714",
"a  c #4B1312",
"s  c #4E1618",
"d  c #481817",
"f  c #521314",
"g  c #5A1314",
"h  c #53161B",
"j  c #531A1B",
"k  c #571A16",
"l  c #630100",
"z  c #6B0400",
"x  c #620B02",
"c  c #6C0D04",
"v  c #6E0F09",
"b  c #610C0A",
"n  c #740D04",
"m  c #7B0D03",
"M  c #740E0A",
"N  c #7B0E0B",
"B  c #7F0700",
"V  c #651302",
"C  c #6C1205",
"Z  c #65140B",
"A  c #6C130A",
"S  c #681908",
"D  c #741205",
"F  c #7B1204",
"G  c #761A00",
"H  c #73120B",
"J  c #7A130B",
"K  c #781809",
"L  c #7A0E11",
"P  c #760E10",
"I  c #641610",
"U  c #6A1513",
"Y  c #631A13",
"T  c #6A1B12",
"R  c #731312",
"E  c #771B14",
"W  c #48201B",
"Q  c #7A2514",
"!  c #531C25",
"~  c #4D1A28",
"^  c #830C02",
"/  c #8B0D01",
"(  c #820C0B",
")  c #880600",
"_  c #930B01",
"`  c #990A02",
"'  c #831204",
"]  c #8B1203",
"[  c #82140A",
"{  c #8B140A",
"}  c #82190C",
"|  c #8B1B0B",
" . c #881804",
".. c #931203",
"X. c #9B1302",
"o. c #941509",
"O. c #931A0B",
"+. c #9C1B0B",
"@. c #9B1608",
"#. c #881D16",
"$. c #921C11",
"%. c #9B1E14",
"&. c #921916",
"*. c #A70D00",
"=. c #A41301",
"-. c #AB1402",
";. c #A41905",
":. c #AB1A04",
">. c #A41B0B",
",. c #AB1C0B",
"<. c #A71609",
"1. c #B41C04",
"2. c #B31D0B",
"3. c #BA1E0A",
"4. c #B71803",
"5. c #A41D12",
"6. c #AA1D13",
"7. c #B51F12",
"8. c #85240E",
"9. c #8B2216",
"0. c #9C2415",
"q. c #962617",
"w. c #983219",
"e. c #A8230A",
"r. c #B4220B",
"t. c #BC230C",
"y. c #BC2707",
"u. c #A42314",
"i. c #AB2314",
"p. c #A4261B",
"a. c #AC251A",
"s. c #AC2B1D",
"d. c #A42B1A",
"f. c #B32313",
"g. c #BC2413",
"h. c #BC2C14",
"j. c #BD2C1B",
"k. c #B6281A",
"l. c #A9371A",
"z. c #BC331C",
"x. c #B53C1A",
"c. c #BB3A1A",
"v. c #B83818",
"b. c #B9350E",
"n. c #9C3529",
"m. c #902D23",
"M. c #A92C21",
"N. c #BA2C21",
"B. c #A83727",
"V. c #BC3222",
"C. c #BD3A23",
"Z. c #B43726",
"A. c #A83930",
"S. c #C51E0A",
"D. c #CA1E0D",
"F. c #CE2403",
"G. c #CE2B03",
"H. c #C3240D",
"J. c #CC240D",
"K. c #C42A0D",
"L. c #CB2A0C",
"P. c #C12904",
"I. c #D42502",
"U. c #DA2505",
"Y. c #D42A02",
"T. c #DB2C03",
"R. c #D3250C",
"E. c #DB250C",
"W. c #D42A0C",
"Q. c #DC2A0B",
"!. c #CB340C",
"~. c #D43302",
"^. c #DC3304",
"/. c #DB3903",
"(. c #D6320C",
"). c #DC330D",
"_. c #DC3A0B",
"`. c #D73A0B",
"'. c #C32512",
"]. c #CC2513",
"[. c #C52A14",
"{. c #CB2A14",
"}. c #C32D1D",
"|. c #CB281B",
" X c #D32613",
".X c #DA2512",
"XX c #D42A13",
"oX c #DA2B12",
"OX c #D42A19",
"+X c #D6261A",
"@X c #C13914",
"#X c #C3341B",
"$X c #C3391D",
"%X c #C93515",
"&X c #DC3412",
"*X c #DC3912",
"=X c #D8381A",
"-X c #E22D03",
";X c #E1230B",
":X c #E12C0C",
">X c #E22005",
",X c #E43404",
"<X c #EC3D03",
"1X c #E4330B",
"2X c #E43B0B",
"3X c #EC3D0C",
"4X c #E73708",
"5X c #F23B03",
"6X c #F33E0D",
"7X c #E22611",
"8X c #E43312",
"9X c #EA3412",
"0X c #E43C13",
"qX c #ED3C12",
"wX c #E53D1A",
"eX c #F33E12",
"rX c #C92E22",
"tX c #C53625",
"yX c #DB3723",
"uX c #EA3E20",
"iX c #B24414",
"pX c #DC4404",
"aX c #C54217",
"sX c #DC4717",
"dX c #DB531C",
"fX c #E54304",
"gX c #EC4405",
"hX c #E44C04",
"jX c #EA4B03",
"kX c #E5460B",
"lX c #EB430B",
"zX c #EC490C",
"xX c #E64C0A",
"cX c #F24403",
"vX c #F14A03",
"bX c #F1430B",
"nX c #F4490C",
"mX c #FA4406",
"MX c #E34414",
"NX c #EC4513",
"BX c #ED4914",
"VX c #EB451C",
"CX c #E64919",
"ZX c #F34412",
"AX c #F24B13",
"SX c #F44719",
"DX c #E2521D",
"FX c #E55102",
"GX c #C94626",
"HX c #DE4D23",
"JX c #D74828",
"KX c #DB542A",
"LX c #DA4D33",
"PX c #C75633",
"IX c #E74923",
"UX c #EF492C",
/* pixels */
"= w.HXBXcXvXjXhXgXgXnXvXjXjXlXlXlXgXzXjXgXxXzXnX3X6XlX3XBXBXpXaX1 e - S HXMXzXjXFXFXhXgXjXfXlXxXfXjXlXgXbXbXZXZXZXZXnXbX5XgXbXzXMXKXG ; j + ",
"1 w.KXBXcXvXFXjXgXbXnXvXjXjXBXNX<XgXgXgXkXfXlXlXlXbX3XbXNXBXsXaX1 e 8 S GXCXbXjXFXFXfXjXgXkXgXkXzXlXkXlXlX6XbXbXeX6X6X3XlXlXgXlXMXKXG ; j + ",
"= w.IXVXvXvXhXkXNXbXbXgXjXgXNXZX<X<XlXgXlXfXlXlXZXZXbXZXBXBXsXaX2 f - S JXVXAXgXFXhXjXbXgXkXkXlXAXBXlX4X3XqX6X6XZXeX6X6XZXAXAXlXMXKXG - d O ",
"= w.KXSXnXvXkXxXNXbX<X<X<XkX3XNX4X4X<X4X2XlXNXZX3XqX3X3XNXCXCXaX2 f - S LXIXSXzXxXxXbXbXNXlX3X2XlXgXlX4X3X3X4X4XSXeXeX6XlXZXAXAXNXKXG = s + ",
"1 m.JXSXnXnXkXxXqXeX<X,X/./.1X4X4X4X-X,X^.^.2X2X-XT.-XT.2XMXsXGX2 f - V GXVXNX3XhXpXlX3XqX2X2X1X^.,X,X1X1X1X-XT.3X9X3X).T.^.4XlXMXLXG ; j $ ",
"1 q.GX0X<X<X/._.9X9X1X-X^.T.:X:X9X9X4X-X^.T.T.,XI.I.I.I.).wXsXGX2 f - V GX=X2X1X/.~.1X,X1X1X,XT.T.^.1X4X9X1X:XU.:X1XQ.U.I.F.~.2XMXKXG 3 j $ ",
"= #.#X(.T.Y.G.~.Q.:X-X-XT.T.Q.;X9X9X9X1XQ.W.Q.Q.U.U.I.I.).*XsXGX2 f - V tXXXQ.^.~.~.T.-XT.E.U.I.T.:X1X9X9X9X:XQ.Q.Q.Q.Y.I.Y.(.1X*XJXG = j O ",
"= #.rXW.T.Y.G.Y.Q..XU.U.Y.T.E.:XU.Q.Q.Q.Q.W.W.I.Q.U.I.I.W.*X=XC.1 h ; w z.J.Q.Q.G.G.E.;XT.E.U.I.Q.T.Q.Q.:XoXoXR.I.R.I.R.I.T.W.(.~.JXD - j O ",
"= #.z.R.T.Y.Y.L..X.XI.>XR.Q.oX.X.XE.E.E.XXW.W.R.Q.oXQ.R.XXsXsXC.2 i 9 4 z.OXE.U.G.Y.Q.Q.E.E.E.Q.Q.I.R.R.R.W.XXoXR.J.R.W.R.F.R.).).JXF ; a o ",
"= #.}.W.I.T.G.L.+X.X;XE.R.W..X.XE.E.R. XW.XXR.L.E..X.XR.OX=XyXC.1 i ; 4 V.+XR.I.L.L.E.E..XoXoX.XR.Q.W. XXX XR.J.J.J.].R.R.W.E.&X).JXD ; d $ ",
"= #.#XR.Y.T.G.J.+X+XR.R.W.W. X X X X XL.J.J. XW.R.XXR.R.&X=X=XC.2 5 q x N.+XR.R.L.L. XE. XXX X XR.W.L.(.XX X].J.].]. XR.R.W.oX&X&XJXD = s o ",
"7 #.}.R.I.Y.L.{.+X+X.XR.L.L.OX+X]. XXX{.{.H.]. XR..XoXXXOX=X=XC.2 f 3 4 N.+XR.R.L.L.R.+XXXXX XR.L.].XXXX{.{.[.].]. X{.].R.OXoXXX(.JXD 3 h $ ",
"1 #.rX XI.T.L.{.|.+X XJ.K.L.{.|.|.XX{.{.[.K.H.J. XXX.X XXX&X%Xz.2 i 8 x N.OXR.R.L.K. XXXXX{.J.H.{.L.{.{.{.[.[.[.{.{.{. X XXXoXW.W.tXF ; h $ ",
"1 #.rX XY.U.L.H.|.+X].F.P.y.H.].{.'.'.g.t.t.S.S.].XXXX X XL.K.k.2 i 3 4 N.OXR.W.K.K.]. X].'.H.H.y.K.K.K.t.t.K.[.t.3.D. XOXXXR.R.I.#Xn ; ! $ ",
"2 #.rXL.Y.Y.].].|.|.].3.1.1.1.3.H.t.3.r.r.3.4.*.J. X XR.L.J.K.k.2 5 w x rXOX XW.K.K.]. X'.'.3.3.1.1.y.y.r.1.3.3.4.-.4.].OXR.R.R.F.$Xn = h $ ",
"2 #.tX{.R.L.'.7.|.|.'.1.;.=.-.-.g.2.:.,.:.:.*.` '.].].{.{.H.K.s.2 5 3 z V.|.].].K.h.#X[.g.g.2.1.` :.e.r.r.:.:.:.*.*.-.{.OX].D. XH.V.c 1 f o ",
"l &.V.rX6.<.6.2.6.f.i.e....._ _ <.<.<.>.u.@.X.` *.j.rXrX7.N.f.%.1 5 4 z V.}.r.r.;.+.u.0.5.5.>.<._ / X.;.i.i.,.<.X.` *.7.rXrX'.7.Z.q.x = g < ",
"l &.B.M.@.` *.` e.u.u.O...] / / @.>.p.s.s.0.../ _ 5.N.6.a.6.+.F = e l z Z.j.:.=./ ] 0.M.d.0.o.) / ^ / O.s.M.a.u.@.` _ <.7.N.N.a.q.E b 1 g * ",
"l | A.M._ ) ) _ O.O.O.' ' ' ' ^ / @.p.p.d.$.o.^ ) @.p.s.s.$./ n = 9 4 z B.s.+...^ ^  .8.9.{ ^ ^ ' ^ ^ | 0.d.p.+.` _ ) _ <.6.a.M.J H 4 1 g < ",
"2 #.A.M.&._ / ( ^ ' F F F '  .' { { O.|  .' ' ' ^ / O.0.0.{ m C * 9 3 z A.Z.+...] ' F n F F ' ] |  .' ' | | { ^ ^ ^ / / &.%.%.&.c A 2 1 g < ",
"2 E n.n.&.{ { ^ m F F n F } K [ ^ ^ ' m n n F F ' m F { } n c V X 0 9 4 A.w.O. .F F D G D D F F } } ' F F F m m m m ' m ( { { N c C 4 = g . ",
"1 U m.#.J [ ' N F D F C D K J F m m J F D D C F [ n m n F c V Z - a 9 1 m.9. .' F F D D H D F F F F J J D F K F F F F n z N J m C A 3 : f . ",
"1 v E R n N [ m F J D D H K H M J N D J K K D D K D M D C C A t > d e = Q K m m J J C c c v K J H H F D D J J H H H D D n c n J A Z 4 ; j . ",
"= b R P L #.[ n D K C H H E J M [ N n M C T H H c M C D C C V w > s , = Q D n K F M H H J D D D K H H H J H D c D M H H H c c H v Z 3 : k o ",
"1 b R R N N N N m F H H H R M J N N J M H A H H H J M H H A Z r * d , 3 U E n J M M M N M M H K J J H J J M M J H J v v H H v C A Z q ; j o ",
"1 6 R R L L L N M H M H H M P L ( N N M H H H H H M J H A A Z I < s i 1 U K n J N N P P P M H D J M J L J H M N J H M M M H M A V I 3 ; h o ",
"1 b U R P N N N N M H H M R P N N N M M J A R H M M M P H v A Z * f p 3 A T M J N L P P M M D M M M M M L M M M H M M v H M H H A Z 3 : j o ",
"= 6 U R N M N M J H H H M v M P N N M J A A H A M M M M H v v I * f : 1 I A b J P P P P L H D v M v M M J M v H M v M v M J M A A Z 4 : j o ",
"= 5 I A v M M n H A A A H A M M P M M A A A A H H M M M H A Z b * s , ; I I V A M P P P H H S G v v v H H v v M M v n v v H H v A Z 5 ; h o ",
"* e I T v v v M H A A A A A A A H H A A Z Z A A A M A M v v c Z * f > ; t S V A v P P P H C C S A v v A H A v A v v c v A H P A v I 5 : ! $ ",
"* e Y Y I A H A A A Z Z A A A A A A A Z V Z V A A v M M A A Z r * h 0 > t t w T U U R v A C V V A Z A A A A A A A A v v v A A v A Z 4 : k o ",
"X 0 t T U U U I Z I Z I Z I I U I A Z Z Z t Z I Z A A Z A Z Z r > d 0 # k t w Y U U U U Z Z V w I Z Z T T Z Z I U A Z Z Z A Z b Z Z 5 : ! o ",
"  + p b b 7 ; : p p p p , , , 3 ; ; 3 5 5 ; 3 ; 3 3 = 3 ; ; 8 0 $ % u + X > 0 > y y y y y , , 5 ; ; 5 , , 3 , , 5 5 5 , 5 ; 5 1 3 ; - u ~ $ ",
"&   = 1 2 1 , > < : : : o * = = - * * - - = * * * * * * * . X X $ d d + X , 9 , > > + o < * * = * - * * > - * * * . * - * > > - = ; 0 u ~ $ ",
"& # 3 2 2 2 3 - ; = 1 = ; ; = ; ; - > ; ; ; ; ; ; - - - - X - > O d u . * = = = 3 1 1 3 1 1 2 1 ; - - - 8 - ; - - - - - - 8 , 3 = = . > ~ $ ",
"& 0 x z z l 4 ; 2 2 2 2 1 1 2 2 2 1 2 2 1 2 2 2 2 2 1 1 1 3 3 = + u 9 = V x c l l l 2 l l l z 2 2 2 3 2 1 1 1 1 1 1 1 2 3 2 3 2 x C ; . ~ $ ",
"- Q x.C.@X@XiXiXx.x.v.v.x.x.v.v.c.c.#X#X$X$X#XtX$X$X$X#X$Xc.c.B.3 0 3 4 B.iXl.b.v.iXx.iXx.x.x.v.aX@X@X@X@Xc.@X@X@X@X@X@X@X@X@Xc.l.B.T - ! $ ",
"= w.PXUXIXIXDXDXsXCXCXDXHXHXIXIXVXVXVXVXVXVXSXSXNXVXVXVXVXIXCXGX2 ; 4 c PXKXdXdXDXDXDXIXHXHXHXHXCXAXAXlXNXlXbXNXNXAXNXNXNXNXlXCXJXPXQ ; j O ",
"2 w.UXUXeXZXzXfXgXcXbXqXqXNXqXeX5X<X<X<X5X6X5XbX5X6XbX<XgXnXgX!.2 3 4 c PXdXdXFXjXgXlXkXCXsXsXkXnXgXcX<X<X<XgX<XcXgXcXcXcXcXcXgXIXPXK = k + ",
"l 0.UXSXmXnXvXfXgXmX5X6XbXeXeXZX3XgX<X<X<XcXbXbXcXnXnXgXnXAXxXaX2 8 w c KXsXkXvXcXcXbXbXlXlXNXlXbXnX<X<X<X<X<XcX5XcXcXcXcXcXnXBXCXLX9.1 k + ",
"1 w.LXUXSXnXFXFXhXgX<X<X/.2X4X9X_.2X*X/.~.^.MXNX`.^.`.`.sXCXsXaX1 f 1 D GXDXAXvXmXmXmX5X3X3X4X2X_._._._._._./.~.kXMX2X~.~.~._.CXIXIX' 2 f @ ",
"= q.GXuXqX<XpXfXfX<X<X,X/.~.,XT.`.`.`.(.(.(.).*X~.G.G.G.`.CXCXGX1 f 1 n GXsXzXgX5X5X5X5X3X1X,X).(.(.&X&X*X*X(.W.&X0X&XL.W.Y.(.VXwXIX' 2 f X ",
"= 8.#X=XT.^.~.~.,X,X-XU.Y.Y.T.T.8X8X8X).Q.Q.Q.:XU.U.I.F.W.0XVXtX1 h 3 z c.%X`.-X-X-X-X,X1X^.Y.U.Q.U.:X8X9X8X:XQ.R.:XQ.I.U.I.R.8XwXJX^ 2 s X ",
"= 9.rXoXQ.T.G.G.T.U.>X>XQ.Q.Q.Q.Q.1X).1XT.T.U.T.:XT.I.I.T.0X0X$X1 j 1 c Z.b.Y.Y.I.>XT.T.T.W.U.U.U.U.:X7X8X8XQ.U.I.U.U.U.U.U.U.8X1XJX' 4 k @ ",
"2 %.rX+XE.>XI.I.U.>X;X;X;XQ.7X.XY.Y.Y.Y.I.I.F.F.T.~.Y.G.T.`.`.c.1 h 4 x Z.h.!.G.Q.I.R.E.R.W.W.W.U.Y.Y.Y.Y.T.Y.Y.I.Y.Y.I.I.Y.Y.1X8XJXm 2 d + ",
"2 0.rX+X.X7XI.R.E.7X7X7XoX.X.XE.F.G.Y.G.Y.I.I.F.G.U.T.G.(.*X*Xc.1 g 2 z B.b.{.L.W.E.E. XR.R.oXQ.W.Y.Y.Y.Y.Y.Y.I.F.Y.I.I.U.Y.Y.`.*XJX^ 1 j + ",
"= 8.V.|. XXXL.K. X X+X+X{.{.W.W.XXXXXXXXOX X XJ.D. X X{.{.yXyXtX2 g 2 c Z.z.[.J.XXXXXX XXXoXoXOXoX.XR.W. XE.R.R.S.R.R.D. XW.R.oX=XJX' 1 s O ",
"* 8.V.|.XXXXK.[.]. X X{.|.%X{.{.|.OX+X|. X].D.].|.+XOX XOXyXyXtX2 g 2 z Z.j.{.K. XXXXXOX+XXXXX XJ.].]. XXX X XD.L.XXJ.J..X XE.oXwXJXF 3 s X ",
"2 { tX].J.XXK.!.L..X+X+X{.[.{.{.OX|.].].|.{.XXOXS. XoX X X=XOXV.2 5 2 z v.}.].XX.X.X.X X]. XXX].{.{.{.].].'.'.'.].{.{.L.R.oX;XE.=XGXF 1 e > ",
"2 | rX].J.(.P.!.]. X X].S.t.t.[.{.D.'.{.[.H.4.S. XXXoXR.R.W.L.z.1 g 4 z s.#XL.oXR.E. X X X{.H.H.t.'.[.|.{.{.|.[.r.y.K.L.W.R.Q.R.'.C.m 1 w - ",
"2 | tX+XJ.XXy.!.{.J.D.'.t.:.e.t.|.'.t.g.h.r.4.-.OX{.+X X].H.H.v.2 g 4 z Z.#XK. XR.+X X{.{.'.t.3.1.r.g.g.'.g.g.g.:.:.1.K.XXR.I.D.r.V.F 1 q X ",
"1 { tX|.J.!.b.@X%X'.S.7.f.<.;.r.'.7.2.:.:.,.=.*.t.{.|.].[.{.[.s.1 f 4 z Z.tX'.J.].].|.[.g.f.f.r.-.,.f.f.7.2.,.<.;.X.;.K.%XL.D.R.h.x.D 1 e X ",
"1 | tXrXg.t.e.e.rXk.7.7.5.o...X.2.,.<.<.;.;.=.` =.g.rXh.g.#Xj.0.= f 4 c Z.V.f.3.4.3.7.k.k.i.,.>.X.X.;.,.6.,.>.>.;...X.r.[.[.J.{.z.d.C 3 9 # ",
"1 8.V.g.-.;.....6.7.a.5.o.] ^ ) @.>.i.a.d.0.X./ ` f.j.j.k.k.e. .= 5 4 l B.l.e.:.` *.6.a.a.%.o./ ) / ..@.i.k.a.u.+.] ] +.f.h.'.j.i.$.2 ; 0 + ",
"= 8.Z.7.=...^ ] ` %.5.` ^ ' m ) / >.d.s.d.0.../ _ @.6.N.s.+...F = , 3 x A.l.+.` ) _ @.%.%.&.[ ^ ^ ^ ^ o.p.M.p.0.{ ' ^ / u.f.f.i.o.F 1 8 d # ",
"= Q Z.6.X...F  .) o.&.( m } #.F / o.0.0.8. .' m ' / o.M.M.o.m D * 9 3 2 A.M.O._ ` o.o.( { [ [ } } ' ^ { 0.M.&.{  .^ m m O.u.u.>.^ n 3 9 d O ",
"* Q B.M.+...' G m N ( ( L J J } / ' ^ F F F F m ^ ^ ^ { { m m C = , 3 x n.B.0.{ ^ ^ ( m N M J K K ' ' ' [ ^ ( ' m F F F ' ' / ] m n 3 - d   ",
"* T p.5... .G D m N ( ( L M E J J ' F F F K F F ( m m ( [ n n Z ; y 5 2 m.w.| [ ^ ( M M M J J K K F J J J ( ' M H D D F F ^ ^ ^ m M 3 > W   ",
". S #./ ^ F G D M N N L J H J J [ ' F D D K D K F n n m F D C A < y 5 1 8.J [ m N J M H H H J H K D J F m N M J J H M D n m m m M A q X W   ",
"- w J ) m m D A M N L L R H D F F m D D D D S H M n n n M A A Z : a 5 1 E M m m J M M P A H H H G D D F N J N N H H H D n m m m M A q X W O ",
"X w H ( ^ F S S N L L L H H D F F m D D H K H A M M n M M A A I : f i 1 E M n m J M H M A A D D C C D H J N J J E H H H C n n m J A , X d   ",
"X w J ( ( J H A P L ( L M D F D F n D D D S H H D J M n H R A I < s g 1 E H D J M M J H H D D D G C D K M J J L H H T H H n n M M A 5 X W   ",
"X e P N ( D A I M P L N M D n m F F D D S K A H H J M M A A A g : y i 1 E J M F M J M H M D D c C C D D M m N M E H H A H H n M H A e X W   ",
"- 5 H N M D A A M P M m c c n n D F D D C H H H A J M v M R A 6 : y i * E A M H H H H H D C D c C C D D M M J M H H H A D H n n H T 8 X W   ",
"= 4 A A C C A c v v M v A A A C D M D M v D D H D v M c M c v Z * a , ; r T T A C D C D D C D D C D D H D H H C A C H H A D H H Z I , > d @ ",
"1 4 Z A A A A A v v v v v C v C A D v v v v A M C c v c c c c b - a 9 ; r Y Z A C c c C C C C C C A A C A c v C v C v C v C v A I k , - k @ ",
"= 4 r Z A A R A v Z v A Z A Z b Z C C C Z C A A A A A Z b A C Z * 9 9 - g Y Z Z A A C C C A C C A A A C A A A A A A A A A v A Z Z r , > j @ ",
"1 4 V Z Y U T A v Z I A Z Z Z Z I Z Z Z S Z Z Z Z V Z Z Z V Z r * a a : r Y Y A A S A C A V Z Z A A A Z A A A A A A U A A Z A Z r g , > j @ ",
"; 3 w 3 4 r 6 4 6 4 6 4 6 4 4 w w w w w w w w w 3 w 3 q 4 3 4 q * a y ; 5 r 6 6 Z x b x V 4 4 4 w 4 6 w 4 4 6 4 r 4 V 4 6 4 4 4 3 e , - k @ ",
"= = ; = = 1 1 1 1 = 1 = 1 = = = = = ; ; ; = = * ; = ; = ; ; ; ; < a y * : 1 = 1 1 1 1 1 1 = 1 = 1 1 1 1 1 1 1 1 1 1 1 1 1 1 = 1 3 5 = - W @ "
};
